<?xml version="1.0" encoding="UTF-8"?>
<svg width="1711" height="1681" version="1.1" xmlns="http://www.w3.org/2000/svg" xmlns:lucid="lucid" xmlns:xlink="http://www.w3.org/1999/xlink"><g transform="translate(-9 -20)" lucid:page-tab-id="0_0"><a target="_blank" xlink:href="https://github.com/chances/teraflop-d/blob/ce4384303a2ddcc66ad92a752acfe7ae2b46cf15/source/teraflop/game.d#L190-L266"><path d="M50 366c0-3.3 2.7-6 6-6h228c3.3 0 6 2.7 6 6v68c0 3.3-2.7 6-6 6H56c-3.3 0-6-2.7-6-6z" fill="#fff" stroke="#5e5e5e" stroke-width="3"/><use transform="matrix(1 0 0 1 62 372) translate(6.4834 33.496)" xlink:href="#a"/><path class="lucid-link lucid-hotspot lucid-overlay-hotspot" d="M50 366c0-3.3 2.7-6 6-6h228c3.3 0 6 2.7 6 6v68c0 3.3-2.7 6-6 6H56c-3.3 0-6-2.7-6-6z" fill="none"/></a><path d="M170 442.5V460" fill="none" stroke="#5e5e5e" stroke-width="2"/><path d="m171 442.53h-2v-1.03h2z" fill="#5e5e5e"/><path d="m170 475.26-4.64-14.26h9.28z" fill="#5e5e5e" stroke="#5e5e5e" stroke-width="2"/><path d="M50 486c0-3.3 2.7-6 6-6h228c3.3 0 6 2.7 6 6v88c0 3.3-2.7 6-6 6H56c-3.3 0-6-2.7-6-6z" fill="#fff" stroke="#5e5e5e" stroke-width="3"/><use transform="matrix(1 0 0 1 62 492) translate(57.296 32.028)" xlink:href="#b"/><use transform="matrix(1 0 0 1 62 492) translate(41.822 58.69)" xlink:href="#c"/><a target="_top" xlink:href="https://chances.github.io/teraflop-d/teraflop/game/Game.initializeWorld.html"><path d="M50 866c0-3.3 2.7-6 6-6h348c3.3 0 6 2.7 6 6v68c0 3.3-2.7 6-6 6H56c-3.3 0-6-2.7-6-6z" fill="#fff" stroke="#5e5e5e" stroke-width="3"/><use transform="matrix(1 0 0 1 62 872) translate(-2.6944 33.33)" xlink:href="#d"/><path class="lucid-link lucid-hotspot lucid-overlay-hotspot" d="M50 866c0-3.3 2.7-6 6-6h348c3.3 0 6 2.7 6 6v68c0 3.3-2.7 6-6 6H56c-3.3 0-6-2.7-6-6z" fill="none"/></a><path d="m292.5 530h30.4" fill="none" stroke="#5e5e5e" stroke-width="2"/><path d="m292.53 531h-1.03v-2h1.03z" fill="#5e5e5e"/><path d="m338.15 530-14.26 4.64v-9.28z" fill="#5e5e5e" stroke="#5e5e5e" stroke-width="2"/><a target="_top" xlink:href="https://chances.github.io/teraflop-d/teraflop/platform/window/Window.valid.html"><path d="m445.2 451.1c2.65-2 6.95-2 9.6 0l100.4 75.3c2.65 2 2.65 5.2 0 7.2l-100.4 75.3c-2.65 2-6.95 2-9.6 0l-100.4-75.3c-2.65-2-2.65-5.2 0-7.2z" fill="#fff" stroke="#5e5e5e" stroke-width="3"/><use transform="matrix(1 0 0 1 345 452.5) translate(19.658 82.469)" xlink:href="#e"/><path class="lucid-link lucid-hotspot lucid-overlay-hotspot" d="m445.2 451.1c2.65-2 6.95-2 9.6 0l100.4 75.3c2.65 2 2.65 5.2 0 7.2l-100.4 75.3c-2.65 2-6.95 2-9.6 0l-100.4-75.3c-2.65-2-2.65-5.2 0-7.2z" fill="none"/></a><g fill="#5e5e5e"><path d="M583.25 531H559.6v-2h23.65zm36.75-1.33h-6.14v-2H620z"/><path d="M559.64 531h-1.1l.18-.4-.28-1.6h1.2zM635.26 528.67L621 533.3v-9.27z"/><path d="m638.5 528.67-18.5 6v-12.02zm-16.5 3.26 10.03-3.26-10.03-3.27z"/></g><use transform="matrix(1 0 0 1 583.25 518.67) translate(0 14.222)" xlink:href="#f"/><path d="M640 483.33c0-3.3 2.7-6 6-6h188c3.3 0 6 2.7 6 6V574c0 3.3-2.7 6-6 6H646c-3.3 0-6-2.7-6-6z" fill="#fff" stroke="#5e5e5e" stroke-width="3"/><use transform="matrix(1 0 0 1 652 489.33) translate(11.302 30.122)" xlink:href="#g"/><use transform="matrix(1 0 0 1 652 489.33) translate(79.142 30.122)" xlink:href="#h"/><use transform="matrix(1 0 0 1 652 489.33) translate(97.66 30.122)" xlink:href="#i"/><use transform="matrix(1 0 0 1 652 489.33) translate(7.1975 56.788)" xlink:href="#j"/><use transform="matrix(1 0 0 1 652 489.33) translate(102.14 56.788)" xlink:href="#k"/><g fill="#5e5e5e"><path d="m451 660h-2v-4.17h2zm0-25.5h-2v-21.67h2z"/><path d="m451 611.85v1h-2v-1.04zm-1 63.41-4.64-14.26h9.28z"/><path d="m450 678.5-6-18.5h12zm-3.26-16.5 3.26 10.03 3.26-10.03z"/></g><use transform="matrix(1 0 0 1 438.2 634.5) translate(0 14.222)" xlink:href="#l"/><path d="M516 680c24.3 0 44 17.9 44 40s-19.7 40-44 40H384c-24.3 0-44-17.9-44-40s19.7-40 44-40z" fill="#ffbbb1" fill-opacity=".5" stroke="#c92d39" stroke-width="3"/><use transform="matrix(1 0 0 1 345 685) translate(23.128 27.347)" xlink:href="#m"/><use transform="matrix(1 0 0 1 345 685) translate(74.388 27.347)" xlink:href="#n"/><use transform="matrix(1 0 0 1 345 685) translate(104.02 27.347)" xlink:href="#o"/><use transform="matrix(1 0 0 1 345 685) translate(148.46 27.347)" xlink:href="#p"/><use transform="matrix(1 0 0 1 345 685) translate(48.314 48.681)" xlink:href="#q"/><use transform="matrix(1 0 0 1 345 685) translate(97.647 48.681)" xlink:href="#r"/><path d="m842.5 528.67h30.39" fill="none" stroke="#5e5e5e" stroke-width="2"/><path d="m842.53 529.67h-1.03v-2h1.03z" fill="#5e5e5e"/><path d="m888.15 528.67-14.26 4.63v-9.27z" fill="#5e5e5e" stroke="#5e5e5e" stroke-width="2"/><path d="m971.87 467.27c2.65-2 6.95-2 9.6 0l77.06 57.8c2.65 1.98 2.65 5.2 0 7.2l-77.06 57.8c-2.65 1.98-6.95 1.98-9.6 0l-77.07-57.8c-2.65-2-2.65-5.22 0-7.2z" fill="#fff" stroke="#5e5e5e" stroke-width="3"/><use transform="matrix(1 0 0 1 895 468.67) translate(36.383 51.611)" xlink:href="#s"/><use transform="matrix(1 0 0 1 895 468.67) translate(24.006 78.278)" xlink:href="#t"/><g fill="#5e5e5e"><path d="m1084.9 529.67h-21.96v-2h21.97zm35.1-1.34h-4.47v-2h4.47z"/><path d="m1063 529.67h-1.08l0.15-0.4-0.28-1.6h1.2zm72.29-2.34-14.26 4.64v-9.27z"/><path d="m1138.5 527.33-18.5 6.02v-12.03zm-16.5 3.26 10.03-3.27-10.03-3.26z"/></g><use transform="matrix(1 0 0 1 1084.9 517.33) translate(0 14.222)" xlink:href="#f"/><path d="m1140 482c0-3.3 2.7-6 6-6h148c3.3 0 6 2.7 6 6v90.67c0 3.3-2.7 6-6 6h-148c-3.3 0-6-2.7-6-6z" fill="#fff" stroke="#5e5e5e" stroke-width="3"/><use transform="matrix(1 0 0 1 1152 488) translate(2.3827 30.122)" xlink:href="#u"/><use transform="matrix(1 0 0 1 1152 488) translate(66.58 30.122)" xlink:href="#i"/><use transform="matrix(1 0 0 1 1152 488) translate(12.506 56.788)" xlink:href="#v"/><use transform="matrix(1 0 0 1 1152 488) translate(70.469 56.788)" xlink:href="#w"/><g fill="#5e5e5e"><path d="M977.67 658.66h-2v-12.9h2zm0-34.25h-2V594h2z"/><path d="m977.67 593.02v1h-2v-1.05zm-1 80.91-4.64-14.27h9.27z"/><path d="m976.67 677.17-6.02-18.5h12.03zm-3.26-16.5 3.27 10.02 3.26-10.04z"/></g><use transform="matrix(1 0 0 1 964.86 624.41) translate(0 14.222)" xlink:href="#l"/><path d="m1034.7 678.67c21.35 0 38.66 17.9 38.66 40s-17.3 40-38.66 40h-116c-21.36 0-38.67-17.9-38.67-40s17.3-40 38.67-40z" fill="#ffbbb1" fill-opacity=".5" stroke="#c92d39" stroke-width="3"/><use transform="matrix(1 0 0 1 885 683.67) translate(17.382 27.347)" xlink:href="#x"/><use transform="matrix(1 0 0 1 885 683.67) translate(47.258 27.347)" xlink:href="#y"/><use transform="matrix(1 0 0 1 885 683.67) translate(131.11 27.347)" xlink:href="#z"/><use transform="matrix(1 0 0 1 885 683.67) translate(26.438 48.681)" xlink:href="#A"/><use transform="matrix(1 0 0 1 885 683.67) translate(98.438 48.681)" xlink:href="#B"/><path d="M1302.5 527.33h16.83c.37 0 .67.3.67.67v.66" fill="none" stroke="#5e5e5e" stroke-width="2"/><path d="m1302.5 528.33h-1.03v-2h1.03z" fill="#5e5e5e"/><path d="m1335.3 528.67-14.26 4.63v-9.27z" fill="#5e5e5e" stroke="#5e5e5e" stroke-width="2"/><path d="M1340 483.33c0-3.3 2.7-6 6-6h148c3.3 0 6 2.7 6 6V574c0 3.3-2.7 6-6 6h-148c-3.3 0-6-2.7-6-6z" fill="#fff" stroke="#5e5e5e" stroke-width="3"/><use transform="matrix(1 0 0 1 1352 489.33) translate(2.3827 30.122)" xlink:href="#u"/><use transform="matrix(1 0 0 1 1352 489.33) translate(66.58 30.122)" xlink:href="#i"/><use transform="matrix(1 0 0 1 1352 489.33) translate(9.4198 56.788)" xlink:href="#C"/><use transform="matrix(1 0 0 1 1352 489.33) translate(79.667 56.788)" xlink:href="#D"/><path d="M1502.5 528.67h16.83c.37 0 .67.3.67.66v.67" fill="none" stroke="#5e5e5e" stroke-width="2"/><path d="m1502.5 529.67h-1.03v-2h1.03z" fill="#5e5e5e"/><path d="m1535.3 530-14.26 4.63v-9.27z" fill="#5e5e5e" stroke="#5e5e5e" stroke-width="2"/><path d="m1540 486c0-3.3 2.7-6 6-6h148c3.3 0 6 2.7 6 6v88c0 3.3-2.7 6-6 6h-148c-3.3 0-6-2.7-6-6z" fill="#fff" stroke="#5e5e5e" stroke-width="3"/><use transform="matrix(1 0 0 1 1552 492) translate(2.3827 29.653)" xlink:href="#u"/><use transform="matrix(1 0 0 1 1552 492) translate(66.58 29.653)" xlink:href="#i"/><use transform="matrix(1 0 0 1 1552 492) translate(2.8765 56.319)" xlink:href="#E"/><use transform="matrix(1 0 0 1 1552 492) translate(65.716 56.319)" xlink:href="#F"/><g fill="#5e5e5e"><path d="M1621 794.13l-.92 3.42-2.53 2.53-3.42.92h-1378l-2.64.7-1.8 1.8-.7 2.63V840h-2v-34.13l.92-3.42 2.53-2.53 3.42-.92h1378l2.64-.7 1.8-1.8.7-2.63V582.5h2z"/><path d="M1621 582.53h-2v-1.03h2zM230 855.26L225.36 841h9.28z"/><path d="m230 858.5-6-18.5h12zm-3.26-16.5 3.26 10.03 3.26-10.03z"/></g><path d="M50 46c0-3.3 2.7-6 6-6h228c3.3 0 6 2.7 6 6v68c0 3.3-2.7 6-6 6H56c-3.3 0-6-2.7-6-6z" fill="#fff" stroke="#5e5e5e" stroke-width="3"/><use transform="matrix(1 0 0 1 62 52) translate(33.377 31.778)" xlink:href="#G"/><use transform="matrix(1 0 0 1 62 52) translate(119.55 31.778)" xlink:href="#H"/><path d="M170 122.5V140" fill="none" stroke="#5e5e5e" stroke-width="2"/><path d="m171 122.53h-2v-1.03h2z" fill="#5e5e5e"/><path d="m170 155.26-4.64-14.26h9.28z" fill="#5e5e5e" stroke="#5e5e5e" stroke-width="2"/><path d="M50 166c0-3.3 2.7-6 6-6h228c3.3 0 6 2.7 6 6v68c0 3.3-2.7 6-6 6H56c-3.3 0-6-2.7-6-6z" fill="#fff" stroke="#5e5e5e" stroke-width="3"/><use transform="matrix(1 0 0 1 62 172) translate(31.895 31.778)" xlink:href="#G"/><use transform="matrix(1 0 0 1 62 172) translate(118.07 31.778)" xlink:href="#I"/><path d="m292.5 200h47.05" fill="none" stroke="#5e5e5e" stroke-width="2"/><path d="m292.53 201h-1.03v-2h1.03z" fill="#5e5e5e"/><path d="m354.82 200-14.27 4.64v-9.28z" fill="#5e5e5e" stroke="#5e5e5e" stroke-width="2"/><path d="m445.2 133.6c2.65-2 6.95-2 9.6 0l83.73 62.8c2.65 2 2.65 5.2 0 7.2l-83.73 62.8c-2.65 2-6.95 2-9.6 0l-83.73-62.8c-2.65-2-2.65-5.2 0-7.2z" fill="#fff" stroke="#5e5e5e" stroke-width="3"/><use transform="matrix(1 0 0 1 361.67 135) translate(42.332 50.278)" xlink:href="#J"/><use transform="matrix(1 0 0 1 361.67 135) translate(22.517 76.944)" xlink:href="#K"/><g fill="#5e5e5e"><path d="M280.78 301H176.13l-2.64.7-1.8 1.8-.7 2.63V340h-2v-34.13l.92-3.42 2.53-2.53 3.42-.92h104.9zM451 294.13l-.92 3.42-2.53 2.53-3.42.92H311.4v-2h132.47l2.64-.7 1.8-1.8.7-2.63v-23.54h2z"/><path d="m451 269.35v1h-2v-1.04zm-281 85.91-4.64-14.26h9.28z"/><path d="m170 358.5-6-18.5h12zm-3.26-16.5 3.26 10.03 3.26-10.03z"/></g><use transform="matrix(1 0 0 1 280.78 289.33) translate(0 14.222)" xlink:href="#f"/><g fill="#5e5e5e"><path d="M568.42 201h-25.48v-2h25.48zm31.58 0h-7.98v-2H600z"/><path d="m542.97 201h-1.08l0.15-0.4-0.28-1.6h1.2zm72.29-1-14.26 4.64v-9.28z"/><path d="m618.5 200-18.5 6v-12zm-16.5 3.26 10.03-3.26-10.03-3.26z"/></g><use transform="matrix(1 0 0 1 568.42 189.33) translate(0 14.222)" xlink:href="#l"/><path d="M796 153.5c24.3 0 44 20.82 44 46.5s-19.7 46.5-44 46.5H664c-24.3 0-44-20.82-44-46.5s19.7-46.5 44-46.5z" fill="#ffbbb1" fill-opacity=".5" stroke="#c92d39" stroke-width="3"/><use transform="matrix(1 0 0 1 625 158.5) translate(16.042 24.597)" xlink:href="#m"/><use transform="matrix(1 0 0 1 625 158.5) translate(67.301 24.597)" xlink:href="#n"/><use transform="matrix(1 0 0 1 625 158.5) translate(96.931 24.597)" xlink:href="#L"/><use transform="matrix(1 0 0 1 625 158.5) translate(135.4 24.597)" xlink:href="#M"/><use transform="matrix(1 0 0 1 625 158.5) translate(30.877 45.931)" xlink:href="#N"/><use transform="matrix(1 0 0 1 625 158.5) translate(60.753 45.931)" xlink:href="#O"/><use transform="matrix(1 0 0 1 625 158.5) translate(144.6 45.931)" xlink:href="#P"/><use transform="matrix(1 0 0 1 625 158.5) translate(39.943 67.264)" xlink:href="#Q"/><use transform="matrix(1 0 0 1 625 158.5) translate(111.94 67.264)" xlink:href="#R"/><path d="m356.67 1219.3c0-3.3 2.68-6.16 6-6.36l208-12.56c3.32-0.2 6 2.33 6 5.64v68c0 3.3-2.7 6-6 6h-208c-3.32 0-6-2.7-6-6z" fill="#fff" stroke="#5e5e5e" stroke-width="3"/><use transform="matrix(1 0 0 1 361.67 1218.3) translate(10.648 32.028)" xlink:href="#S"/><use transform="matrix(1 0 0 1 361.67 1218.3) translate(97.006 32.028)" xlink:href="#T"/><use transform="matrix(1 0 0 1 361.67 1218.3) translate(149.97 32.028)" xlink:href="#U"/><path d="M230 942.5v29c0 3.3-2.7 6-6 6h-48c-3.3 0-6 2.7-6 6V995" fill="none" stroke="#5e5e5e" stroke-width="2"/><path d="m231 942.53h-2v-1.03h2z" fill="#5e5e5e"/><path d="m170 1010.3-4.64-14.26h9.28z" fill="#5e5e5e" stroke="#5e5e5e" stroke-width="2"/><path d="M50 1021c0-3.3 2.7-6 6-6h228c3.3 0 6 2.7 6 6v68c0 3.3-2.7 6-6 6H56c-3.3 0-6-2.7-6-6z" fill="#fff" stroke="#5e5e5e" stroke-width="3"/><use transform="matrix(1 0 0 1 62 1027) translate(50.506 31.778)" xlink:href="#V"/><use transform="matrix(1 0 0 1 62 1027) translate(117.11 31.778)" xlink:href="#W"/><path d="m292.5 1055h47.05" fill="none" stroke="#5e5e5e" stroke-width="2"/><path d="m292.53 1056h-1.03v-2h1.03z" fill="#5e5e5e"/><path d="m354.82 1055-14.27 4.64v-9.28z" fill="#5e5e5e" stroke="#5e5e5e" stroke-width="2"/><a target="_top" xlink:href="https://chances.github.io/teraflop-d/teraflop/game/Game.frameRateLimited.html"><path d="m451.87 983.6c2.65-2 6.95-2 9.6 0l90.4 67.8c2.65 2 2.65 5.2 0 7.2l-90.4 67.8c-2.65 2-6.95 2-9.6 0l-90.4-67.8c-2.65-2-2.65-5.2 0-7.2z" fill="#fff" stroke="#5e5e5e" stroke-width="3"/><use transform="matrix(1 0 0 1 361.67 985) translate(9.6578 75.469)" xlink:href="#X"/><path class="lucid-link lucid-hotspot lucid-overlay-hotspot" d="m451.87 983.6c2.65-2 6.95-2 9.6 0l90.4 67.8c2.65 2 2.65 5.2 0 7.2l-90.4 67.8c-2.65 2-6.95 2-9.6 0l-90.4-67.8c-2.65-2-2.65-5.2 0-7.2z" fill="none"/></a><g fill="#5e5e5e"><path d="m575.6 1056h-19.3v-2h19.33zm32.45 0h-1.82v-2h1.82z"/><path d="m556.3 1056h-1.08l0.16-0.4-0.27-1.6h1.2zm67.02-1-14.27 4.64v-9.28z"/><path d="m626.56 1055-18.5 6v-12zm-16.5 3.26 10.02-3.26-10.03-3.26z"/></g><use transform="matrix(1 0 0 1 575.61 1044.3) translate(0 14.222)" xlink:href="#f"/><a target="_blank" xlink:href="https://chances.github.io/teraflop-d/teraflop/game/Game.desiredFrameRateHertz.html"><path d="m628.06 1021c0-3.3 2.68-6 6-6h214c22.1 0 40 17.9 40 40s-17.9 40-40 40h-214c-3.32 0-6-2.7-6-6z" fill="#fff" stroke="#5e5e5e" stroke-width="3"/><use transform="matrix(1 0 0 1 633.06 1020) translate(32.117 30.903)" xlink:href="#Y"/><use transform="matrix(1 0 0 1 633.06 1020) translate(95.019 30.903)" xlink:href="#Z"/><use transform="matrix(1 0 0 1 633.06 1020) translate(197.36 30.903)" xlink:href="#aa"/><use transform="matrix(1 0 0 1 633.06 1020) translate(11.982 54.01)" xlink:href="#ab"/><path class="lucid-link lucid-hotspot lucid-overlay-hotspot" d="m628.06 1021c0-3.3 2.68-6 6-6h214c22.1 0 40 17.9 40 40s-17.9 40-40 40h-214c-3.32 0-6-2.7-6-6z" fill="none"/></a><path d="m959.44 1021c0-3.3 2.7-6 6-6h288c3.32 0 6 2.7 6 6v68c0 3.3-2.68 6-6 6h-288c-3.3 0-6-2.7-6-6z" fill="none"/><path d="m959.44 1095c5.53 0 10-4.48 10-10v-20c0-5.52 4.48-10 10-10-5.52 0-10-4.48-10-10v-20c0-5.52-4.47-10-10-10" fill="none" stroke="#5e5e5e" stroke-width="3"/><use transform="matrix(1 0 0 1 994.44 1020) translate(0 26.111)" xlink:href="#ac"/><use transform="matrix(1 0 0 1 994.44 1020) translate(61.543 26.111)" xlink:href="#ad"/><use transform="matrix(1 0 0 1 994.44 1020) translate(98.58 26.111)" xlink:href="#ae"/><use transform="matrix(1 0 0 1 994.44 1020) translate(188.58 26.111)" xlink:href="#af"/><use transform="matrix(1 0 0 1 994.44 1020) translate(219.44 26.111)" xlink:href="#ag"/><use transform="matrix(1 0 0 1 994.44 1020) translate(0 52.778)" xlink:href="#ah"/><use transform="matrix(1 0 0 1 994.44 1020) translate(93.642 52.778)" xlink:href="#ai"/><use transform="matrix(1 0 0 1 994.44 1020) translate(146.6 52.778)" xlink:href="#aj"/><a target="_blank" xlink:href="https://github.com/chances/teraflop-d/blob/ce4384303a2ddcc66ad92a752acfe7ae2b46cf15/source/teraflop/game.d#L269-L323"><path d="M50 1206c0-3.3 2.7-6 6-6h228c3.3 0 6 2.7 6 6v68c0 3.3-2.7 6-6 6H56c-3.3 0-6-2.7-6-6z" fill="#fff" stroke="#5e5e5e" stroke-width="3"/><use transform="matrix(1 0 0 1 62 1212) translate(21.819 35.273)" xlink:href="#ak"/><path class="lucid-link lucid-hotspot lucid-overlay-hotspot" d="M50 1206c0-3.3 2.7-6 6-6h228c3.3 0 6 2.7 6 6v68c0 3.3-2.7 6-6 6H56c-3.3 0-6-2.7-6-6z" fill="none"/></a><a target="_top" xlink:href="https://chances.github.io/teraflop-d/teraflop/game/Game.active.html"><path d="m165.2 1388.6c2.65-2 6.95-2 9.6 0l70.4 52.8c2.65 2 2.65 5.2 0 7.2l-70.4 52.8c-2.65 2-6.95 2-9.6 0l-70.4-52.8c-2.65-2-2.65-5.2 0-7.2z" fill="#fff" stroke="#5e5e5e" stroke-width="3"/><use transform="matrix(1 0 0 1 95 1390) translate(16.329 58.906)" xlink:href="#al"/><path class="lucid-link lucid-hotspot lucid-overlay-hotspot" d="m165.2 1388.6c2.65-2 6.95-2 9.6 0l70.4 52.8c2.65 2 2.65 5.2 0 7.2l-70.4 52.8c-2.65 2-6.95 2-9.6 0l-70.4-52.8c-2.65-2-2.65-5.2 0-7.2z" fill="none"/></a><g fill="#5e5e5e"><path d="m171 1522.5h-2v-17.17h2z"/><path d="m171 1504.4v1h-2v-1.04zm-1 54.41-4.64-14.26h9.28z"/><path d="m170 1562-5.9-18.17h11.8zm-3.26-16.5 3.26 10.03 3.26-10.03z"/></g><use transform="matrix(1 0 0 1 154.69 1522.5) translate(0 14.222)" xlink:href="#f"/><g fill="#5e5e5e"><path d="M276.75 1446H249.6v-2h27.15zm33.25 0h-9.64v-2H310z"/><path d="m249.64 1446h-1.1l0.18-0.4-0.28-1.6h1.2zm75.62-1-14.26 4.64v-9.28z"/><path d="m328.5 1445-18.5 6v-12zm-16.5 3.26 10.03-3.26-10.03-3.26z"/></g><use transform="matrix(1 0 0 1 276.75 1434.3) translate(0 14.222)" xlink:href="#l"/><path d="M330 1413.5c0-3.3 2.7-6 6-6h308c3.3 0 6 2.7 6 6v63c0 3.3-2.7 6-6 6H336c-3.3 0-6-2.7-6-6z" fill="#fff" stroke="#5e5e5e" stroke-width="3"/><use transform="matrix(1 0 0 1 342 1419.5) translate(9.9136 17.778)" xlink:href="#am"/><use transform="matrix(1 0 0 1 342 1419.5) translate(115.9 17.778)" xlink:href="#an"/><use transform="matrix(1 0 0 1 342 1419.5) translate(194.79 17.778)" xlink:href="#ao"/><use transform="matrix(1 0 0 1 342 1419.5) translate(249.05 17.778)" xlink:href="#ap"/><use transform="matrix(1 0 0 1 342 1419.5) translate(9.2346 44.444)" xlink:href="#aq"/><use transform="matrix(1 0 0 1 342 1419.5) translate(65.963 44.444)" xlink:href="#ar"/><use transform="matrix(1 0 0 1 342 1419.5) translate(189.36 44.444)" xlink:href="#as"/><path d="M652.5 1445H670" fill="none" stroke="#5e5e5e" stroke-width="2"/><path d="m652.53 1446h-1.03v-2h1.03z" fill="#5e5e5e"/><path d="m685.26 1445-14.26 4.64v-9.28z" fill="#5e5e5e" stroke="#5e5e5e" stroke-width="2"/><path d="m818 1415c17.67 0 32 13.43 32 30s-14.33 30-32 30h-96c-17.67 0-32-13.43-32-30s14.33-30 32-30z" fill="#c7e8ac" fill-opacity=".5" stroke="#7ab648" stroke-width="3"/><use transform="matrix(1 0 0 1 695 1420) translate(23.21 30.528)" xlink:href="#at"/><use transform="matrix(1 0 0 1 695 1420) translate(66.358 30.528)" xlink:href="#au"/><path d="m292.5 1240h44.16" fill="none" stroke="#5e5e5e" stroke-width="2"/><path d="m292.53 1241h-1.03v-2h1.03z" fill="#5e5e5e"/><path d="m351.93 1240-14.27 4.64v-9.28z" fill="#5e5e5e" stroke="#5e5e5e" stroke-width="2"/><path d="m579.17 1240.1h15.1" fill="none" stroke="#5e5e5e" stroke-width="2"/><path d="m579.2 1241.1h-1.03v-2h1.02z" fill="#5e5e5e"/><path d="m609.43 1240-14.24 4.72-0.06-9.27z" fill="#5e5e5e" stroke="#5e5e5e" stroke-width="2"/><path d="m614.17 1206c0-3.3 2.68-6 6-6h188c3.3 0 6 2.7 6 6v68c0 3.3-2.7 6-6 6h-188c-3.32 0-6-2.7-6-6z" fill="#fff" stroke="#5e5e5e" stroke-width="3"/><use transform="matrix(1 0 0 1 626.17 1212) translate(4.1728 31.778)" xlink:href="#av"/><use transform="matrix(1 0 0 1 626.17 1212) translate(81.889 31.778)" xlink:href="#aw"/><path d="m816.67 1240h21.66" fill="none" stroke="#5e5e5e" stroke-width="2"/><path d="m816.7 1241h-1.03v-2h1.02z" fill="#5e5e5e"/><path d="m853.6 1240-14.27 4.64v-9.28z" fill="#5e5e5e" stroke="#5e5e5e" stroke-width="2"/><path d="m858.33 1196.1c0-3.32 2.7-6 6-6h208c3.32 0 6 2.68 6 6v87.88c0 3.32-2.68 6-6 6h-208c-3.3 0-6-2.68-6-6z" fill="#fff" stroke="#5e5e5e" stroke-width="3"/><use transform="matrix(1 0 0 1 870.33 1202.1) translate(5.5309 29.653)" xlink:href="#ax"/><use transform="matrix(1 0 0 1 870.33 1202.1) translate(68.37 29.653)" xlink:href="#ay"/><use transform="matrix(1 0 0 1 870.33 1202.1) translate(165.78 29.653)" xlink:href="#az"/><use transform="matrix(1 0 0 1 870.33 1202.1) translate(28.278 56.319)" xlink:href="#aA"/><use transform="matrix(1 0 0 1 870.33 1202.1) translate(65.315 56.319)" xlink:href="#aB"/><use transform="matrix(1 0 0 1 870.33 1202.1) translate(125.81 56.319)" xlink:href="#aC"/><path d="m1080.8 1240h33.32" fill="none" stroke="#5e5e5e" stroke-width="2"/><path d="m1080.9 1241h-1.03v-2h1.03z" fill="#5e5e5e"/><path d="m1129.4 1240-14.27 4.64v-9.28z" fill="#5e5e5e" stroke="#5e5e5e" stroke-width="2"/><a target="_top" xlink:href="https://chances.github.io/teraflop-d/teraflop/time/Time.html"><path d="m1134.2 1196.1c0-3.32 2.68-6 6-6h208c3.3 0 6 2.68 6 6v87.88c0 3.32-2.7 6-6 6h-208c-3.32 0-6-2.68-6-6z" fill="#fff" stroke="#5e5e5e" stroke-width="3"/><use transform="matrix(1 0 0 1 1146.2 1202.1) translate(2.7531 34.403)" xlink:href="#av"/><use transform="matrix(1 0 0 1 1146.2 1202.1) translate(80.469 34.403)" xlink:href="#aA"/><use transform="matrix(1 0 0 1 1146.2 1202.1) translate(117.51 34.403)" xlink:href="#aD"/><use transform="matrix(1 0 0 1 1146.2 1202.1) translate(76.663 57.51)" xlink:href="#aE"/><path class="lucid-link lucid-hotspot lucid-overlay-hotspot" d="m1134.2 1196.1c0-3.32 2.68-6 6-6h208c3.3 0 6 2.68 6 6v87.88c0 3.32-2.7 6-6 6h-208c-3.32 0-6-2.68-6-6z" fill="none"/></a><path d="m1356.7 1240h17.5" fill="none" stroke="#5e5e5e" stroke-width="2"/><path d="m1356.7 1241h-1.03v-2h1.02z" fill="#5e5e5e"/><path d="m1389.4 1240-14.27 4.64v-9.28z" fill="#5e5e5e" stroke="#5e5e5e" stroke-width="2"/><path d="m1394.2 1186c0-3.3 2.68-6 6-6h148c3.3 0 6 2.7 6 6v108c0 3.3-2.7 6-6 6h-148c-3.32 0-6-2.7-6-6z" fill="#fff" stroke="#5e5e5e" stroke-width="3"/><use transform="matrix(1 0 0 1 1406.2 1192) translate(2.6605 29.778)" xlink:href="#aF"/><use transform="matrix(1 0 0 1 1406.2 1192) translate(49.512 29.778)" xlink:href="#aG"/><use transform="matrix(1 0 0 1 1406.2 1192) translate(77.784 29.778)" xlink:href="#aH"/><use transform="matrix(1 0 0 1 1406.2 1192) translate(102.48 29.778)" xlink:href="#aI"/><use transform="matrix(1 0 0 1 1406.2 1192) translate(30.13 56.444)" xlink:href="#aD"/><use transform="matrix(1 0 0 1 1406.2 1192) translate(31.55 79.556)" xlink:href="#aJ"/><a target="_blank" xlink:href="https://github.com/chances/teraflop-d/blob/ce4384303a2ddcc66ad92a752acfe7ae2b46cf15/source/teraflop/game.d#L406-L468"><path d="M93.62 1567.6c2.42-2.26 7.07-4.1 10.38-4.1h162c13.25 0 24 20.1 24 44.9 0 24.82-10.75 44.93-24 44.93H104c-3.3 0-7.96-1.84-10.38-4.1l-39.24-36.72c-2.42-2.25-2.42-5.92 0-8.2z" fill="#fff" stroke="#5e5e5e" stroke-width="3"/><use transform="matrix(1 0 0 1 55 1568.5) translate(32.824 47.773)" xlink:href="#aK"/><path class="lucid-link lucid-hotspot lucid-overlay-hotspot" d="M93.62 1567.6c2.42-2.26 7.07-4.1 10.38-4.1h162c13.25 0 24 20.1 24 44.9 0 24.82-10.75 44.93-24 44.93H104c-3.3 0-7.96-1.84-10.38-4.1l-39.24-36.72c-2.42-2.25-2.42-5.92 0-8.2z" fill="none"/></a><g fill="#5e5e5e"><path d="M30 1056h-3.87l-2.64.7-1.8 1.8-.7 2.63v622.74l.7 2.64 1.8 1.8 2.63.7h138.5l2.65-.7 1.78-1.8.7-2.63v-28.04h2v28.3l-.9 3.42-2.54 2.53-3.4.92H25.86l-3.42-.92-2.53-2.53-.92-3.42v-623.26l.92-3.42 2.53-2.53 3.42-.92H30z"/><path d="M171.77 1655.85h-2v-1.02h2zM45.26 1055L31 1059.64v-9.28z"/><path d="M48.5 1055l-18.5 6v-12zm-16.5 3.26l10.03-3.26-10.03-3.26zM910.44 1054.92l2.53 2.53.92 3.42v83.26l-.93 3.42-2.53 2.53-3.42.92h-730.9l-2.63.7-1.8 1.8-.7 2.63V1180h-2v-24.13l.92-3.42 2.53-2.53 3.42-.92h730.9l2.63-.7 1.77-1.8.72-2.63v-82.74l-.73-2.64-1.77-1.8-2.64-.7h-16.2v-2h16.46z"/><path d="M890.58 1056h-1.08l.06-.98-.04-1.02h1.06zM170 1195.26l-4.64-14.26h9.28z"/><path d="m170 1198.5-6-18.5h12zm-3.26-16.5 3.26 10.03 3.26-10.03z"/></g><path d="M1556.67 1240h33c3.3 0 6 2.7 6 6v88c0 3.3-2.7 6-6 6H176c-3.3 0-6 2.7-6 6v21.17" fill="none" stroke="#5e5e5e" stroke-width="2"/><path d="m1556.7 1241h-1.03v-2h1.02z" fill="#5e5e5e"/><path d="m170 1382.4-4.64-14.26h9.28z" fill="#5e5e5e" stroke="#5e5e5e" stroke-width="2"/><defs><path id="aL" d="M650-216c90 0 157-35 208-74v-235H584v-218h544v558C1004-84 858 20 635 20 235 20 80-276 80-681c0-416 146-689 558-689 277 0 398 160 462 375l-274 54c-31-108-73-197-185-197-231 0-262 217-262 457 0 149 22 263 67 344s113 121 204 121" fill="#333"/><path id="aM" d="M775-193C708-75 621 20 439 20 226 20 106-93 106-306c0-251 170-341 417-346l223-4c4-143-12-264-148-264-103 0-141 58-150 153l-293-14c37-219 194-321 455-321 263 0 418 130 417 390v392c1 84 5 161 89 160 21 0 42-2 62-6v152c-57 15-108 27-180 26-145 0-202-73-217-205h-6zm-256 17c168 0 234-139 227-325-166 4-347-25-347 173 0 94 33 152 120 152" fill="#333"/><path id="aN" d="M934-1102c199 0 220 177 220 381V0H926c-2-260 10-533-4-785-4-72-14-138-83-138-34 0-61 27-81 81s-29 134-29 241V0H501c-2-260 9-533-5-785-4-72-13-138-82-138-46 0-65 47-80 93-21 67-30 155-30 248V0H75c-3-360 6-732-6-1082h209c6 50 3 123 8 175 36-100 83-195 216-195 135 0 166 79 196 196 42-105 93-196 236-196" fill="#333"/><path id="aO" d="M1113-274C1038-96 884 20 626 20c-352 0-526-209-526-566 0-358 185-556 530-556 358 0 496 251 499 615H395c5 180 68 319 245 319 102 0 186-45 208-129zM857-663c-6-177-128-307-315-247-94 30-141 121-145 247h460" fill="#333"/><path id="aP" d="M470 0v-305h289V0H470" fill="#333"/><path id="aQ" d="M794-190h353V0H118v-190h395v-702H223v-190h571v892zM513-1277v-207h281v207H513" fill="#333"/><path id="aR" d="M768-1103c247 0 336 167 336 416V0H824v-619c-3-164-24-273-171-273-164 0-229 142-229 312V0H143c-4-359 9-736-8-1082h268c7 63 12 146 13 215h4c67-145 160-236 348-236" fill="#333"/><path id="aS" d="M711 13c-250 0-386-99-385-349l2-556H161v-190h181l88-282h176v282h385v190H606v530c-10 130 45 186 174 184 91-2 176-11 255-27v186C933-1 833 13 711 13" fill="#333"/><path id="aT" d="M794-190h353V0H118v-190h395v-1104H223v-190h571v1294" fill="#333"/><path id="aU" d="M138 0v-199l570-680H179v-203h849v201L461-205h616V0H138" fill="#333"/><path id="aV" d="M621-530c0 421 127 700 301 955H641C466 173 344-110 344-531s122-702 297-953h281c-174 254-301 534-301 954" fill="#333"/><path id="aW" d="M885-531c0 421-122 704-297 956H307c174-255 301-534 301-955 0-420-127-700-301-954h281c175 251 297 532 297 953" fill="#333"/><g id="a"><use transform="scale(.0097656)" xlink:href="#aL"/><use transform="matrix(.0097656 0 0 .0097656 12.002 0)" xlink:href="#aM"/><use transform="matrix(.0097656 0 0 .0097656 24.004 0)" xlink:href="#aN"/><use transform="matrix(.0097656 0 0 .0097656 36.006 0)" xlink:href="#aO"/><use transform="matrix(.0097656 0 0 .0097656 48.008 0)" xlink:href="#aP"/><use transform="matrix(.0097656 0 0 .0097656 60.01 0)" xlink:href="#aQ"/><use transform="matrix(.0097656 0 0 .0097656 72.012 0)" xlink:href="#aR"/><use transform="matrix(.0097656 0 0 .0097656 84.014 0)" xlink:href="#aQ"/><use transform="matrix(.0097656 0 0 .0097656 96.016 0)" xlink:href="#aS"/><use transform="matrix(.0097656 0 0 .0097656 108.02 0)" xlink:href="#aQ"/><use transform="matrix(.0097656 0 0 .0097656 120.02 0)" xlink:href="#aM"/><use transform="matrix(.0097656 0 0 .0097656 132.02 0)" xlink:href="#aT"/><use transform="matrix(.0097656 0 0 .0097656 144.02 0)" xlink:href="#aQ"/><use transform="matrix(.0097656 0 0 .0097656 156.03 0)" xlink:href="#aU"/><use transform="matrix(.0097656 0 0 .0097656 168.03 0)" xlink:href="#aO"/><use transform="matrix(.0097656 0 0 .0097656 180.03 0)" xlink:href="#aV"/><use transform="matrix(.0097656 0 0 .0097656 192.03 0)" xlink:href="#aW"/></g><path id="aX" d="M33 0v-248h34V0H33" fill="#333"/><path id="aY" d="M117-194c89-4 53 116 60 194h-32v-121c0-31-8-49-39-48C34-167 62-67 57 0H25l-1-190h30c1 10-1 24 2 32 11-22 29-35 61-36" fill="#333"/><path id="aZ" d="M135-143c-3-34-86-38-87 0 15 53 115 12 119 90S17 21 10-45l28-5c4 36 97 45 98 0-10-56-113-15-118-90-4-57 82-63 122-42 12 7 21 19 24 35" fill="#333"/><path id="ba" d="M59-47c-2 24 18 29 38 22v24C64 9 27 4 27-40v-127H5v-23h24l9-43h21v43h35v23H59v120" fill="#333"/><path id="bb" d="M141-36C126-15 110 5 73 4 37 3 15-17 15-53c-1-64 63-63 125-63 3-35-9-54-41-54-24 1-41 7-42 31l-33-3c5-37 33-52 76-52 45 0 72 20 72 64v82c-1 20 7 32 28 27v20c-31 9-61-2-59-35zM48-53c0 20 12 33 32 33 41-3 63-29 60-74-43 2-92-5-92 41" fill="#333"/><path id="bc" d="M24-231v-30h32v30H24zM24 0v-190h32V0H24" fill="#333"/><path id="bd" d="M100-194c63 0 86 42 84 106H49c0 40 14 67 53 68 26 1 43-12 49-29l28 8c-11 28-37 45-77 45C44 4 14-33 15-96c1-61 26-98 85-98zm52 81c6-60-76-77-97-28-3 7-6 17-6 28h103" fill="#333"/><g id="b"><use transform="scale(.061728)" xlink:href="#aX"/><use transform="matrix(.061728 0 0 .061728 6.1728 0)" xlink:href="#aY"/><use transform="matrix(.061728 0 0 .061728 18.519 0)" xlink:href="#aZ"/><use transform="matrix(.061728 0 0 .061728 29.63 0)" xlink:href="#ba"/><use transform="matrix(.061728 0 0 .061728 35.802 0)" xlink:href="#bb"/><use transform="matrix(.061728 0 0 .061728 48.148 0)" xlink:href="#aY"/><use transform="matrix(.061728 0 0 .061728 60.494 0)" xlink:href="#ba"/><use transform="matrix(.061728 0 0 .061728 66.667 0)" xlink:href="#bc"/><use transform="matrix(.061728 0 0 .061728 71.543 0)" xlink:href="#bb"/><use transform="matrix(.061728 0 0 .061728 83.889 0)" xlink:href="#ba"/><use transform="matrix(.061728 0 0 .061728 90.062 0)" xlink:href="#bd"/></g><path id="be" d="M1018 0H770c-49-215-106-420-154-636C567-419 511-214 459 0H211L0-1349h259c35 320 94 617 105 961 37-206 100-393 154-583h195c54 191 118 375 154 583 14-339 68-641 102-961h259" fill="#333"/><path id="bf" d="M802-909c-3-189-2-383-2-575h281v1248c-1 83 4 168 8 236H817c-9-50-14-117-15-176h-4C735-49 651 20 482 20 191 20 97-238 97-539c0-243 66-432 221-519 50-28 108-42 175-42 162 2 253 78 309 191zm-70 658c91-113 93-462 2-584-46-61-145-100-224-53-96 56-119 190-120 349 0 123 17 214 52 275 46 82 130 115 222 74 25-12 46-33 68-61" fill="#333"/><path id="bg" d="M616-1102c361 0 521 202 521 560 0 354-171 562-527 562C259 20 92-192 92-542c0-351 169-560 524-560zm-9 930c200-2 236-165 236-370 0-199-27-367-223-367-195 0-233 146-233 367 0 129 18 223 55 282s92 88 165 88" fill="#333"/><path id="bh" d="M1028 0H784c-56-191-119-378-170-573C562-377 495-191 437 0H194L11-1082h228c32 239 67 472 95 714 4 40 7 80 7 119 53-195 119-378 177-568h193c56 190 120 371 169 568-1-79 11-158 21-226l91-607h226" fill="#333"/><g id="c"><use transform="scale(.010851)" xlink:href="#aN"/><use transform="matrix(.010851 0 0 .010851 13.336 0)" xlink:href="#aM"/><use transform="matrix(.010851 0 0 .010851 26.671 0)" xlink:href="#aQ"/><use transform="matrix(.010851 0 0 .010851 40.007 0)" xlink:href="#aR"/><use transform="matrix(.010851 0 0 .010851 53.342 0)" xlink:href="#be"/><use transform="matrix(.010851 0 0 .010851 66.678 0)" xlink:href="#aQ"/><use transform="matrix(.010851 0 0 .010851 80.013 0)" xlink:href="#aR"/><use transform="matrix(.010851 0 0 .010851 93.349 0)" xlink:href="#bf"/><use transform="matrix(.010851 0 0 .010851 106.68 0)" xlink:href="#bg"/><use transform="matrix(.010851 0 0 .010851 120.02 0)" xlink:href="#bh"/></g><path id="bi" d="M875-1102c70 0 148 7 206 17v237c-110-17-267-37-359 15-123 69-192 207-192 395V0H250c-10-367 32-789-52-1082h271c19 69 36 149 46 228h4c52-151 151-250 356-248" fill="#333"/><g id="d"><use transform="scale(.0086806)" xlink:href="#aL"/><use transform="matrix(.0086806 0 0 .0086806 10.668 0)" xlink:href="#aM"/><use transform="matrix(.0086806 0 0 .0086806 21.337 0)" xlink:href="#aN"/><use transform="matrix(.0086806 0 0 .0086806 32.005 0)" xlink:href="#aO"/><use transform="matrix(.0086806 0 0 .0086806 42.674 0)" xlink:href="#aP"/><use transform="matrix(.0086806 0 0 .0086806 53.342 0)" xlink:href="#aQ"/><use transform="matrix(.0086806 0 0 .0086806 64.01 0)" xlink:href="#aR"/><use transform="matrix(.0086806 0 0 .0086806 74.679 0)" xlink:href="#aQ"/><use transform="matrix(.0086806 0 0 .0086806 85.347 0)" xlink:href="#aS"/><use transform="matrix(.0086806 0 0 .0086806 96.016 0)" xlink:href="#aQ"/><use transform="matrix(.0086806 0 0 .0086806 106.68 0)" xlink:href="#aM"/><use transform="matrix(.0086806 0 0 .0086806 117.35 0)" xlink:href="#aT"/><use transform="matrix(.0086806 0 0 .0086806 128.02 0)" xlink:href="#aQ"/><use transform="matrix(.0086806 0 0 .0086806 138.69 0)" xlink:href="#aU"/><use transform="matrix(.0086806 0 0 .0086806 149.36 0)" xlink:href="#aO"/><use transform="matrix(.0086806 0 0 .0086806 160.03 0)" xlink:href="#be"/><use transform="matrix(.0086806 0 0 .0086806 170.69 0)" xlink:href="#bg"/><use transform="matrix(.0086806 0 0 .0086806 181.36 0)" xlink:href="#bi"/><use transform="matrix(.0086806 0 0 .0086806 192.03 0)" xlink:href="#aT"/><use transform="matrix(.0086806 0 0 .0086806 202.7 0)" xlink:href="#bf"/><use transform="matrix(.0086806 0 0 .0086806 213.37 0)" xlink:href="#aV"/><use transform="matrix(.0086806 0 0 .0086806 224.04 0)" xlink:href="#aL"/><use transform="matrix(.0086806 0 0 .0086806 234.7 0)" xlink:href="#aM"/><use transform="matrix(.0086806 0 0 .0086806 245.37 0)" xlink:href="#aN"/><use transform="matrix(.0086806 0 0 .0086806 256.04 0)" xlink:href="#aO"/><use transform="matrix(.0086806 0 0 .0086806 266.71 0)" xlink:href="#aP"/><use transform="matrix(.0086806 0 0 .0086806 277.38 0)" xlink:href="#bh"/><use transform="matrix(.0086806 0 0 .0086806 288.05 0)" xlink:href="#bg"/><use transform="matrix(.0086806 0 0 .0086806 298.72 0)" xlink:href="#bi"/><use transform="matrix(.0086806 0 0 .0086806 309.38 0)" xlink:href="#aT"/><use transform="matrix(.0086806 0 0 .0086806 320.05 0)" xlink:href="#bf"/><use transform="matrix(.0086806 0 0 .0086806 330.72 0)" xlink:href="#aW"/></g><path id="bj" d="M774 0H438L31-1082h297c94 290 200 568 280 872 83-304 194-581 291-872h294" fill="#333"/><g id="e"><use transform="scale(.0086806)" xlink:href="#aN"/><use transform="matrix(.0086806 0 0 .0086806 10.668 0)" xlink:href="#aM"/><use transform="matrix(.0086806 0 0 .0086806 21.337 0)" xlink:href="#aQ"/><use transform="matrix(.0086806 0 0 .0086806 32.005 0)" xlink:href="#aR"/><use transform="matrix(.0086806 0 0 .0086806 42.674 0)" xlink:href="#be"/><use transform="matrix(.0086806 0 0 .0086806 53.342 0)" xlink:href="#aQ"/><use transform="matrix(.0086806 0 0 .0086806 64.01 0)" xlink:href="#aR"/><use transform="matrix(.0086806 0 0 .0086806 74.679 0)" xlink:href="#bf"/><use transform="matrix(.0086806 0 0 .0086806 85.347 0)" xlink:href="#bg"/><use transform="matrix(.0086806 0 0 .0086806 96.016 0)" xlink:href="#bh"/><use transform="matrix(.0086806 0 0 .0086806 106.68 0)" xlink:href="#aP"/><use transform="matrix(.0086806 0 0 .0086806 117.35 0)" xlink:href="#bj"/><use transform="matrix(.0086806 0 0 .0086806 128.02 0)" xlink:href="#aM"/><use transform="matrix(.0086806 0 0 .0086806 138.69 0)" xlink:href="#aT"/><use transform="matrix(.0086806 0 0 .0086806 149.36 0)" xlink:href="#aQ"/><use transform="matrix(.0086806 0 0 .0086806 160.03 0)" xlink:href="#bf"/></g><path id="bk" d="M146-102V0H94v-102L6-248h54l60 105 60-105h54" fill="#333"/><path id="bl" d="M185-48c-13 30-37 53-82 52C43 2 14-33 14-96s30-98 90-98c62 0 83 45 84 108H66c0 31 8 55 39 56 18 0 30-7 34-22zm-45-69c5-46-57-63-70-21-2 6-4 13-4 21h74" fill="#333"/><path id="bm" d="m137-138c1-29-70-34-71-4 15 46 118 7 119 86 1 83-164 76-172 9l43-7c4 19 20 25 44 25 33 8 57-30 24-41-43-14-102-11-104-66-2-80 154-74 161-7" fill="#333"/><g id="f"><use transform="scale(.049383)" xlink:href="#bk"/><use transform="matrix(.049383 0 0 .049383 10.864 0)" xlink:href="#bl"/><use transform="matrix(.049383 0 0 .049383 20.741 0)" xlink:href="#bm"/></g><path id="bn" d="m185-189c-5-48-123-54-124 2 14 75 158 14 163 119 3 78-121 87-175 55-17-10-28-26-33-46l33-7c5 56 141 63 141-1 0-78-155-14-162-118-5-82 145-84 179-34 5 7 8 16 11 25" fill="#333"/><path id="bo" d="M24 0v-261h32V0H24" fill="#333"/><path id="bp" d="m96-169c-40 0-48 33-48 73s9 75 48 75c24 0 41-14 43-38l32 2c-6 37-31 61-74 61-59 0-76-41-82-99-10-93 101-131 147-64 4 7 5 14 7 22l-32 3c-4-21-16-35-41-35" fill="#333"/><g id="g"><use transform="scale(.061728)" xlink:href="#bn"/><use transform="matrix(.061728 0 0 .061728 14.815 0)" xlink:href="#bd"/><use transform="matrix(.061728 0 0 .061728 27.16 0)" xlink:href="#bo"/><use transform="matrix(.061728 0 0 .061728 32.037 0)" xlink:href="#bd"/><use transform="matrix(.061728 0 0 .061728 44.383 0)" xlink:href="#bp"/><use transform="matrix(.061728 0 0 .061728 55.494 0)" xlink:href="#ba"/></g><use id="h" transform="scale(.061728)" xlink:href="#bb"/><path id="bq" d="M137 0h-34L2-248h35l83 218 83-218h36" fill="#333"/><path id="br" d="M84 4C-5 8 30-112 23-190h32v120c0 31 7 50 39 49 72-2 45-101 50-169h31l1 190h-30c-1-10 1-25-2-33-11 22-28 36-60 37" fill="#333"/><path id="bs" d="M143 0L79-87 56-68V0H24v-261h32v163l83-92h37l-77 82L181 0h-38" fill="#333"/><g id="i"><use transform="scale(.061728)" xlink:href="#bq"/><use transform="matrix(.061728 0 0 .061728 14.012 0)" xlink:href="#br"/><use transform="matrix(.061728 0 0 .061728 26.358 0)" xlink:href="#bo"/><use transform="matrix(.061728 0 0 .061728 31.235 0)" xlink:href="#bs"/><use transform="matrix(.061728 0 0 .061728 42.346 0)" xlink:href="#bb"/><use transform="matrix(.061728 0 0 .061728 54.691 0)" xlink:href="#aY"/></g><path id="bt" d="M143 4C61 4 22-44 18-125c-5-107 100-154 193-111 17 8 29 25 37 43l-32 9c-13-25-37-40-76-40-61 0-88 39-88 99 0 61 29 100 91 101 35 0 62-11 79-27v-45h-74v-28h105v86C228-13 192 4 143 4" fill="#333"/><path id="bu" d="M114-163C36-179 61-72 57 0H25l-1-190h30c1 12-1 29 2 39 6-27 23-49 58-41v29" fill="#333"/><path id="bv" d="M115-194c55 1 70 41 70 98S169 2 115 4C84 4 66-9 55-30l1 105H24l-1-265h31l2 30c10-21 28-34 59-34zm-8 174c40 0 45-34 45-75s-6-73-45-74c-42 0-51 32-51 76 0 43 10 73 51 73" fill="#333"/><path id="bw" d="M106-169C34-169 62-67 57 0H25v-261h32l-1 103c12-21 28-36 61-36 89 0 53 116 60 194h-32v-121c2-32-8-49-39-48" fill="#333"/><g id="j"><use transform="scale(.061728)" xlink:href="#bt"/><use transform="matrix(.061728 0 0 .061728 17.284 0)" xlink:href="#bu"/><use transform="matrix(.061728 0 0 .061728 24.63 0)" xlink:href="#bb"/><use transform="matrix(.061728 0 0 .061728 36.975 0)" xlink:href="#bv"/><use transform="matrix(.061728 0 0 .061728 49.321 0)" xlink:href="#bw"/><use transform="matrix(.061728 0 0 .061728 61.667 0)" xlink:href="#bc"/><use transform="matrix(.061728 0 0 .061728 66.543 0)" xlink:href="#bp"/><use transform="matrix(.061728 0 0 .061728 77.654 0)" xlink:href="#aZ"/></g><path id="bx" d="M140-251c81 0 123 46 123 126C263-53 228-8 163 1c7 30 30 48 69 40v23c-55 16-95-15-103-61C56-3 17-48 17-125c0-80 42-126 123-126zm0 227c63 0 89-41 89-101s-29-99-89-99c-61 0-89 39-89 99S79-25 140-24" fill="#333"/><g id="k"><use transform="scale(.061728)" xlink:href="#bx"/><use transform="matrix(.061728 0 0 .061728 17.284 0)" xlink:href="#br"/><use transform="matrix(.061728 0 0 .061728 29.63 0)" xlink:href="#bd"/><use transform="matrix(.061728 0 0 .061728 41.975 0)" xlink:href="#br"/><use transform="matrix(.061728 0 0 .061728 54.321 0)" xlink:href="#bd"/></g><path id="by" d="M175 0L67-191c6 58 2 128 3 191H24v-248h59L193-55c-6-58-2-129-3-193h46V0h-61" fill="#333"/><path id="bz" d="m110-194c64 0 96 36 96 99 0 64-35 99-97 99-61 0-95-36-95-99 0-62 34-99 96-99zm-1 164c35 0 45-28 45-65 0-40-10-65-43-65-34 0-45 26-45 65 0 36 10 65 43 65" fill="#333"/><g id="l"><use transform="scale(.049383)" xlink:href="#by"/><use transform="matrix(.049383 0 0 .049383 12.79 0)" xlink:href="#bz"/></g><path id="bA" d="M212-179c-10-28-35-45-73-45-59 0-87 40-87 99 0 60 29 101 89 101 43 0 62-24 78-52l27 14C228-24 195 4 139 4 59 4 22-46 18-125c-6-104 99-153 187-111 19 9 31 26 39 46" fill="#333"/><path id="bB" d="M100-194c62-1 85 37 85 99 1 63-27 99-86 99S16-35 15-95c0-66 28-99 85-99zM99-20c44 1 53-31 53-75 0-43-8-75-51-75s-53 32-53 75 10 74 51 75" fill="#333"/><path id="bC" d="M85-194c31 0 48 13 60 33l-1-100h32l1 261h-30c-2-10 0-23-3-31C134-8 116 4 85 4 32 4 16-35 15-94c0-66 23-100 70-100zm9 24c-40 0-46 34-46 75 0 40 6 74 45 74 42 0 51-32 51-76 0-42-9-74-50-73" fill="#333"/><g id="m"><use transform="scale(.049383)" xlink:href="#bA"/><use transform="matrix(.049383 0 0 .049383 12.79 0)" xlink:href="#bB"/><use transform="matrix(.049383 0 0 .049383 22.667 0)" xlink:href="#br"/><use transform="matrix(.049383 0 0 .049383 32.543 0)" xlink:href="#bo"/><use transform="matrix(.049383 0 0 .049383 36.444 0)" xlink:href="#bC"/></g><g id="n"><use transform="scale(.049383)" xlink:href="#aY"/><use transform="matrix(.049383 0 0 .049383 9.8765 0)" xlink:href="#bB"/><use transform="matrix(.049383 0 0 .049383 19.753 0)" xlink:href="#ba"/></g><g id="o"><use transform="scale(.049383)" xlink:href="#bB"/><use transform="matrix(.049383 0 0 .049383 9.8765 0)" xlink:href="#bv"/><use transform="matrix(.049383 0 0 .049383 19.753 0)" xlink:href="#bd"/><use transform="matrix(.049383 0 0 .049383 29.63 0)" xlink:href="#aY"/></g><path id="bD" d="M210-169c-67 3-38 105-44 169h-31v-121c0-29-5-50-35-48C34-165 62-65 56 0H25l-1-190h30c1 10-1 24 2 32 10-44 99-50 107 0 11-21 27-35 58-36 85-2 47 119 55 194h-31v-121c0-29-5-49-35-48" fill="#333"/><g id="p"><use transform="scale(.049383)" xlink:href="#bD"/><use transform="matrix(.049383 0 0 .049383 14.765 0)" xlink:href="#bb"/><use transform="matrix(.049383 0 0 .049383 24.642 0)" xlink:href="#bc"/><use transform="matrix(.049383 0 0 .049383 28.543 0)" xlink:href="#aY"/></g><path id="bE" d="M177-190C167-65 218 103 67 71c-23-6-38-20-44-43l32-5c15 47 100 32 89-28v-30C133-14 115 1 83 1 29 1 15-40 15-95c0-56 16-97 71-98 29-1 48 16 59 35 1-10 0-23 2-32h30zM94-22c36 0 50-32 50-73 0-42-14-75-50-75-39 0-46 34-46 75s6 73 46 73" fill="#333"/><g id="q"><use transform="scale(.049383)" xlink:href="#bE"/><use transform="matrix(.049383 0 0 .049383 9.8765 0)" xlink:href="#bb"/><use transform="matrix(.049383 0 0 .049383 19.753 0)" xlink:href="#bD"/><use transform="matrix(.049383 0 0 .049383 34.519 0)" xlink:href="#bd"/></g><path id="bF" d="M206 0h-36l-40-164L89 0H53L-1-190h32L70-26l43-164h34l41 164 42-164h31" fill="#333"/><path id="bG" d="M63-70H37l-4-178h34zM33 0v-35h34V0H33" fill="#333"/><g id="r"><use transform="scale(.049383)" xlink:href="#bF"/><use transform="matrix(.049383 0 0 .049383 12.79 0)" xlink:href="#bc"/><use transform="matrix(.049383 0 0 .049383 16.691 0)" xlink:href="#aY"/><use transform="matrix(.049383 0 0 .049383 26.568 0)" xlink:href="#bC"/><use transform="matrix(.049383 0 0 .049383 36.444 0)" xlink:href="#bB"/><use transform="matrix(.049383 0 0 .049383 46.321 0)" xlink:href="#bF"/><use transform="matrix(.049383 0 0 .049383 59.111 0)" xlink:href="#bG"/></g><g id="s"><use transform="scale(.061728)" xlink:href="#bn"/><use transform="matrix(.061728 0 0 .061728 14.815 0)" xlink:href="#bd"/><use transform="matrix(.061728 0 0 .061728 27.16 0)" xlink:href="#bo"/><use transform="matrix(.061728 0 0 .061728 32.037 0)" xlink:href="#bd"/><use transform="matrix(.061728 0 0 .061728 44.383 0)" xlink:href="#bp"/><use transform="matrix(.061728 0 0 .061728 55.494 0)" xlink:href="#ba"/><use transform="matrix(.061728 0 0 .061728 61.667 0)" xlink:href="#bc"/><use transform="matrix(.061728 0 0 .061728 66.543 0)" xlink:href="#bB"/><use transform="matrix(.061728 0 0 .061728 78.889 0)" xlink:href="#aY"/></g><path id="bH" d="M101-234c-31-9-42 10-38 44h38v23H63V0H32v-167H5v-23h27c-7-52 17-82 69-68v24" fill="#333"/><path id="bI" d="M103-251c84 0 111 97 45 133-19 10-37 24-39 52H78c0-63 77-55 77-114 0-30-21-42-52-43-32 0-53 17-56 46l-32-2c7-45 34-72 88-72zM77 0v-35h34V0H77" fill="#333"/><g id="t"><use transform="scale(.061728)" xlink:href="#aZ"/><use transform="matrix(.061728 0 0 .061728 11.111 0)" xlink:href="#br"/><use transform="matrix(.061728 0 0 .061728 23.457 0)" xlink:href="#bp"/><use transform="matrix(.061728 0 0 .061728 34.568 0)" xlink:href="#bp"/><use transform="matrix(.061728 0 0 .061728 45.679 0)" xlink:href="#bd"/><use transform="matrix(.061728 0 0 .061728 58.025 0)" xlink:href="#aZ"/><use transform="matrix(.061728 0 0 .061728 69.136 0)" xlink:href="#aZ"/><use transform="matrix(.061728 0 0 .061728 80.247 0)" xlink:href="#bH"/><use transform="matrix(.061728 0 0 .061728 86.42 0)" xlink:href="#br"/><use transform="matrix(.061728 0 0 .061728 98.765 0)" xlink:href="#bo"/><use transform="matrix(.061728 0 0 .061728 103.64 0)" xlink:href="#bI"/></g><g id="u"><use transform="scale(.061728)" xlink:href="#bn"/><use transform="matrix(.061728 0 0 .061728 14.815 0)" xlink:href="#bd"/><use transform="matrix(.061728 0 0 .061728 27.16 0)" xlink:href="#ba"/><use transform="matrix(.061728 0 0 .061728 33.333 0)" xlink:href="#br"/><use transform="matrix(.061728 0 0 .061728 45.679 0)" xlink:href="#bv"/></g><g id="v"><use transform="scale(.061728)" xlink:href="#aZ"/><use transform="matrix(.061728 0 0 .061728 11.111 0)" xlink:href="#bF"/><use transform="matrix(.061728 0 0 .061728 27.099 0)" xlink:href="#bb"/><use transform="matrix(.061728 0 0 .061728 39.444 0)" xlink:href="#bv"/></g><g id="w"><use transform="scale(.061728)" xlink:href="#bp"/><use transform="matrix(.061728 0 0 .061728 11.111 0)" xlink:href="#bw"/><use transform="matrix(.061728 0 0 .061728 23.457 0)" xlink:href="#bb"/><use transform="matrix(.061728 0 0 .061728 35.802 0)" xlink:href="#bc"/><use transform="matrix(.061728 0 0 .061728 40.679 0)" xlink:href="#aY"/></g><path id="bJ" d="M127-220V0H93v-220H8v-28h204v28h-85" fill="#333"/><path id="bK" d="M179-190L93 31C79 59 56 82 12 73V49c39 6 53-20 64-50L1-190h34L92-34l54-156h33" fill="#333"/><g id="x"><use transform="scale(.049383)" xlink:href="#bJ"/><use transform="matrix(.049383 0 0 .049383 10.173 0)" xlink:href="#bu"/><use transform="matrix(.049383 0 0 .049383 16.049 0)" xlink:href="#bK"/></g><g id="y"><use transform="scale(.049383)" xlink:href="#br"/><use transform="matrix(.049383 0 0 .049383 9.8765 0)" xlink:href="#bv"/><use transform="matrix(.049383 0 0 .049383 19.753 0)" xlink:href="#bE"/><use transform="matrix(.049383 0 0 .049383 29.63 0)" xlink:href="#bu"/><use transform="matrix(.049383 0 0 .049383 35.506 0)" xlink:href="#bb"/><use transform="matrix(.049383 0 0 .049383 45.383 0)" xlink:href="#bC"/><use transform="matrix(.049383 0 0 .049383 55.259 0)" xlink:href="#bc"/><use transform="matrix(.049383 0 0 .049383 59.16 0)" xlink:href="#aY"/><use transform="matrix(.049383 0 0 .049383 69.037 0)" xlink:href="#bE"/></g><g id="z"><use transform="scale(.049383)" xlink:href="#bK"/><use transform="matrix(.049383 0 0 .049383 8.8889 0)" xlink:href="#bB"/><use transform="matrix(.049383 0 0 .049383 18.765 0)" xlink:href="#br"/><use transform="matrix(.049383 0 0 .049383 28.642 0)" xlink:href="#bu"/></g><g id="A"><use transform="scale(.049383)" xlink:href="#bE"/><use transform="matrix(.049383 0 0 .049383 9.8765 0)" xlink:href="#bu"/><use transform="matrix(.049383 0 0 .049383 15.753 0)" xlink:href="#bb"/><use transform="matrix(.049383 0 0 .049383 25.63 0)" xlink:href="#bv"/><use transform="matrix(.049383 0 0 .049383 35.506 0)" xlink:href="#bw"/><use transform="matrix(.049383 0 0 .049383 45.383 0)" xlink:href="#bc"/><use transform="matrix(.049383 0 0 .049383 49.284 0)" xlink:href="#bp"/><use transform="matrix(.049383 0 0 .049383 58.173 0)" xlink:href="#aZ"/></g><path id="bL" d="M108 0H70L1-190h34L89-25l56-165h34" fill="#333"/><path id="bM" d="M33 0v-38h34V0H33" fill="#333"/><g id="B"><use transform="scale(.049383)" xlink:href="#bC"/><use transform="matrix(.049383 0 0 .049383 9.8765 0)" xlink:href="#bu"/><use transform="matrix(.049383 0 0 .049383 15.753 0)" xlink:href="#bc"/><use transform="matrix(.049383 0 0 .049383 19.654 0)" xlink:href="#bL"/><use transform="matrix(.049383 0 0 .049383 28.543 0)" xlink:href="#bd"/><use transform="matrix(.049383 0 0 .049383 38.42 0)" xlink:href="#bu"/><use transform="matrix(.049383 0 0 .049383 44.296 0)" xlink:href="#aZ"/><use transform="matrix(.049383 0 0 .049383 53.185 0)" xlink:href="#bM"/></g><g id="C"><use transform="scale(.061728)" xlink:href="#bu"/><use transform="matrix(.061728 0 0 .061728 7.3457 0)" xlink:href="#bd"/><use transform="matrix(.061728 0 0 .061728 19.691 0)" xlink:href="#aY"/><use transform="matrix(.061728 0 0 .061728 32.037 0)" xlink:href="#bC"/><use transform="matrix(.061728 0 0 .061728 44.383 0)" xlink:href="#bd"/><use transform="matrix(.061728 0 0 .061728 56.728 0)" xlink:href="#bu"/></g><g id="D"><use transform="scale(.061728)" xlink:href="#bv"/><use transform="matrix(.061728 0 0 .061728 12.346 0)" xlink:href="#bb"/><use transform="matrix(.061728 0 0 .061728 24.691 0)" xlink:href="#aZ"/><use transform="matrix(.061728 0 0 .061728 35.802 0)" xlink:href="#aZ"/></g><g id="E"><use transform="scale(.061728)" xlink:href="#bH"/><use transform="matrix(.061728 0 0 .061728 6.1728 0)" xlink:href="#bu"/><use transform="matrix(.061728 0 0 .061728 13.519 0)" xlink:href="#bb"/><use transform="matrix(.061728 0 0 .061728 25.864 0)" xlink:href="#bD"/><use transform="matrix(.061728 0 0 .061728 44.321 0)" xlink:href="#bd"/></g><path id="bN" d="M115-194c53 0 69 39 70 98 0 66-23 100-70 100C84 3 66-7 56-30L54 0H23l1-261h32v101c10-23 28-34 59-34zm-8 174c40 0 45-34 45-75 0-40-5-75-45-74-42 0-51 32-51 76 0 43 10 73 51 73" fill="#333"/><g id="F"><use transform="scale(.061728)" xlink:href="#bN"/><use transform="matrix(.061728 0 0 .061728 12.346 0)" xlink:href="#br"/><use transform="matrix(.061728 0 0 .061728 24.691 0)" xlink:href="#bH"/><use transform="matrix(.061728 0 0 .061728 30.432 0)" xlink:href="#bH"/><use transform="matrix(.061728 0 0 .061728 36.605 0)" xlink:href="#bd"/><use transform="matrix(.061728 0 0 .061728 48.951 0)" xlink:href="#bu"/><use transform="matrix(.061728 0 0 .061728 56.296 0)" xlink:href="#aZ"/></g><path id="bO" d="M9 0v-24l116-142H16v-24h144v24L44-24h123V0H9" fill="#333"/><g id="G"><use transform="scale(.061728)" xlink:href="#aX"/><use transform="matrix(.061728 0 0 .061728 6.1728 0)" xlink:href="#aY"/><use transform="matrix(.061728 0 0 .061728 18.519 0)" xlink:href="#bc"/><use transform="matrix(.061728 0 0 .061728 23.395 0)" xlink:href="#ba"/><use transform="matrix(.061728 0 0 .061728 29.568 0)" xlink:href="#bc"/><use transform="matrix(.061728 0 0 .061728 34.444 0)" xlink:href="#bb"/><use transform="matrix(.061728 0 0 .061728 46.79 0)" xlink:href="#bo"/><use transform="matrix(.061728 0 0 .061728 51.667 0)" xlink:href="#bc"/><use transform="matrix(.061728 0 0 .061728 56.543 0)" xlink:href="#bO"/><use transform="matrix(.061728 0 0 .061728 67.654 0)" xlink:href="#bd"/></g><path id="bP" d="M30 0v-248h33v221h125V0H30" fill="#333"/><path id="bQ" d="M63-220v92h138v28H63V0H30v-248h175v28H63" fill="#333"/><path id="bR" d="M266 0h-40l-56-210L115 0H75L2-248h35L96-30l15-64 43-154h32l59 218 59-218h35" fill="#333"/><g id="H"><use transform="scale(.061728)" xlink:href="#bt"/><use transform="matrix(.061728 0 0 .061728 17.284 0)" xlink:href="#bP"/><use transform="matrix(.061728 0 0 .061728 29.63 0)" xlink:href="#bQ"/><use transform="matrix(.061728 0 0 .061728 43.148 0)" xlink:href="#bR"/></g><g id="I"><use transform="scale(.061728)" xlink:href="#bq"/><use transform="matrix(.061728 0 0 .061728 14.012 0)" xlink:href="#br"/><use transform="matrix(.061728 0 0 .061728 26.358 0)" xlink:href="#bo"/><use transform="matrix(.061728 0 0 .061728 31.235 0)" xlink:href="#bs"/><use transform="matrix(.061728 0 0 .061728 42.346 0)" xlink:href="#bb"/><use transform="matrix(.061728 0 0 .061728 54.691 0)" xlink:href="#aY"/></g><g id="J"><use transform="scale(.061728)" xlink:href="#aX"/><use transform="matrix(.061728 0 0 .061728 6.1728 0)" xlink:href="#aY"/><use transform="matrix(.061728 0 0 .061728 18.519 0)" xlink:href="#bc"/><use transform="matrix(.061728 0 0 .061728 23.395 0)" xlink:href="#ba"/><use transform="matrix(.061728 0 0 .061728 29.568 0)" xlink:href="#bc"/><use transform="matrix(.061728 0 0 .061728 34.444 0)" xlink:href="#bb"/><use transform="matrix(.061728 0 0 .061728 46.79 0)" xlink:href="#bo"/><use transform="matrix(.061728 0 0 .061728 51.667 0)" xlink:href="#bc"/><use transform="matrix(.061728 0 0 .061728 56.543 0)" xlink:href="#bO"/><use transform="matrix(.061728 0 0 .061728 67.654 0)" xlink:href="#bd"/><use transform="matrix(.061728 0 0 .061728 80 0)" xlink:href="#bC"/></g><g id="K"><use transform="scale(.061728)" xlink:href="#aZ"/><use transform="matrix(.061728 0 0 .061728 11.111 0)" xlink:href="#br"/><use transform="matrix(.061728 0 0 .061728 23.457 0)" xlink:href="#bp"/><use transform="matrix(.061728 0 0 .061728 34.568 0)" xlink:href="#bp"/><use transform="matrix(.061728 0 0 .061728 45.679 0)" xlink:href="#bd"/><use transform="matrix(.061728 0 0 .061728 58.025 0)" xlink:href="#aZ"/><use transform="matrix(.061728 0 0 .061728 69.136 0)" xlink:href="#aZ"/><use transform="matrix(.061728 0 0 .061728 80.247 0)" xlink:href="#bH"/><use transform="matrix(.061728 0 0 .061728 86.42 0)" xlink:href="#br"/><use transform="matrix(.061728 0 0 .061728 98.765 0)" xlink:href="#bo"/><use transform="matrix(.061728 0 0 .061728 103.64 0)" xlink:href="#bo"/><use transform="matrix(.061728 0 0 .061728 108.52 0)" xlink:href="#bK"/><use transform="matrix(.061728 0 0 .061728 119.63 0)" xlink:href="#bI"/></g><g id="L"><use transform="scale(.049383)" xlink:href="#bo"/><use transform="matrix(.049383 0 0 .049383 3.9012 0)" xlink:href="#bB"/><use transform="matrix(.049383 0 0 .049383 13.778 0)" xlink:href="#bb"/><use transform="matrix(.049383 0 0 .049383 23.654 0)" xlink:href="#bC"/></g><g id="M"><use transform="scale(.049383)" xlink:href="#bq"/><use transform="matrix(.049383 0 0 .049383 11.21 0)" xlink:href="#br"/><use transform="matrix(.049383 0 0 .049383 21.086 0)" xlink:href="#bo"/><use transform="matrix(.049383 0 0 .049383 24.988 0)" xlink:href="#bs"/><use transform="matrix(.049383 0 0 .049383 33.877 0)" xlink:href="#bb"/><use transform="matrix(.049383 0 0 .049383 43.753 0)" xlink:href="#aY"/><use transform="matrix(.049383 0 0 .049383 53.63 0)" xlink:href="#bG"/></g><g id="N"><use transform="scale(.049383)" xlink:href="#bJ"/><use transform="matrix(.049383 0 0 .049383 10.173 0)" xlink:href="#bu"/><use transform="matrix(.049383 0 0 .049383 16.049 0)" xlink:href="#bK"/></g><g id="O"><use transform="scale(.049383)" xlink:href="#br"/><use transform="matrix(.049383 0 0 .049383 9.8765 0)" xlink:href="#bv"/><use transform="matrix(.049383 0 0 .049383 19.753 0)" xlink:href="#bE"/><use transform="matrix(.049383 0 0 .049383 29.63 0)" xlink:href="#bu"/><use transform="matrix(.049383 0 0 .049383 35.506 0)" xlink:href="#bb"/><use transform="matrix(.049383 0 0 .049383 45.383 0)" xlink:href="#bC"/><use transform="matrix(.049383 0 0 .049383 55.259 0)" xlink:href="#bc"/><use transform="matrix(.049383 0 0 .049383 59.16 0)" xlink:href="#aY"/><use transform="matrix(.049383 0 0 .049383 69.037 0)" xlink:href="#bE"/></g><g id="P"><use transform="scale(.049383)" xlink:href="#bK"/><use transform="matrix(.049383 0 0 .049383 8.8889 0)" xlink:href="#bB"/><use transform="matrix(.049383 0 0 .049383 18.765 0)" xlink:href="#br"/><use transform="matrix(.049383 0 0 .049383 28.642 0)" xlink:href="#bu"/></g><g id="Q"><use transform="scale(.049383)" xlink:href="#bE"/><use transform="matrix(.049383 0 0 .049383 9.8765 0)" xlink:href="#bu"/><use transform="matrix(.049383 0 0 .049383 15.753 0)" xlink:href="#bb"/><use transform="matrix(.049383 0 0 .049383 25.63 0)" xlink:href="#bv"/><use transform="matrix(.049383 0 0 .049383 35.506 0)" xlink:href="#bw"/><use transform="matrix(.049383 0 0 .049383 45.383 0)" xlink:href="#bc"/><use transform="matrix(.049383 0 0 .049383 49.284 0)" xlink:href="#bp"/><use transform="matrix(.049383 0 0 .049383 58.173 0)" xlink:href="#aZ"/></g><g id="R"><use transform="scale(.049383)" xlink:href="#bC"/><use transform="matrix(.049383 0 0 .049383 9.8765 0)" xlink:href="#bu"/><use transform="matrix(.049383 0 0 .049383 15.753 0)" xlink:href="#bc"/><use transform="matrix(.049383 0 0 .049383 19.654 0)" xlink:href="#bL"/><use transform="matrix(.049383 0 0 .049383 28.543 0)" xlink:href="#bd"/><use transform="matrix(.049383 0 0 .049383 38.42 0)" xlink:href="#bu"/><use transform="matrix(.049383 0 0 .049383 44.296 0)" xlink:href="#aZ"/><use transform="matrix(.049383 0 0 .049383 53.185 0)" xlink:href="#bM"/></g><path id="bS" d="M30-248c87 1 191-15 191 75 0 78-77 80-158 76V0H30v-248zm33 125c57 0 124 11 124-50 0-59-68-47-124-48v98" fill="#333"/><g id="S"><use transform="scale(.061728)" xlink:href="#bS"/><use transform="matrix(.061728 0 0 .061728 14.815 0)" xlink:href="#bu"/><use transform="matrix(.061728 0 0 .061728 22.16 0)" xlink:href="#bB"/><use transform="matrix(.061728 0 0 .061728 34.506 0)" xlink:href="#bp"/><use transform="matrix(.061728 0 0 .061728 45.617 0)" xlink:href="#bd"/><use transform="matrix(.061728 0 0 .061728 57.963 0)" xlink:href="#aZ"/><use transform="matrix(.061728 0 0 .061728 69.074 0)" xlink:href="#aZ"/></g><path id="bT" d="M232-93c-1 65-40 97-104 97C67 4 28-28 28-90v-158h33c8 89-33 224 67 224 102 0 64-133 71-224h33v155" fill="#333"/><g id="T"><use transform="scale(.061728)" xlink:href="#bT"/><use transform="matrix(.061728 0 0 .061728 15.988 0)" xlink:href="#aZ"/><use transform="matrix(.061728 0 0 .061728 27.099 0)" xlink:href="#bd"/><use transform="matrix(.061728 0 0 .061728 39.444 0)" xlink:href="#bu"/></g><g id="U"><use transform="scale(.061728)" xlink:href="#aX"/><use transform="matrix(.061728 0 0 .061728 6.1728 0)" xlink:href="#aY"/><use transform="matrix(.061728 0 0 .061728 18.519 0)" xlink:href="#bv"/><use transform="matrix(.061728 0 0 .061728 30.864 0)" xlink:href="#br"/><use transform="matrix(.061728 0 0 .061728 43.21 0)" xlink:href="#ba"/></g><g id="V"><use transform="scale(.061728)" xlink:href="#bt"/><use transform="matrix(.061728 0 0 .061728 17.284 0)" xlink:href="#bb"/><use transform="matrix(.061728 0 0 .061728 29.63 0)" xlink:href="#bD"/><use transform="matrix(.061728 0 0 .061728 48.086 0)" xlink:href="#bd"/></g><g id="W"><use transform="scale(.061728)" xlink:href="#bP"/><use transform="matrix(.061728 0 0 .061728 12.346 0)" xlink:href="#bB"/><use transform="matrix(.061728 0 0 .061728 24.691 0)" xlink:href="#bB"/><use transform="matrix(.061728 0 0 .061728 37.037 0)" xlink:href="#bv"/></g><path id="bU" d="M844-1321c-130 0-195 53-191 182v57h443v190H653V0H373v-892H117v-190h256v-83c5-247 162-348 422-349 120-1 232 13 327 28v184c-84-10-183-19-278-19" fill="#333"/><path id="bV" d="M1157-949c0 209-118 316-279 368L1227 0H895L605-515H432V0H137v-1349h494c317-2 526 111 526 400zM608-744c158 1 248-51 252-193 5-207-223-184-428-183v376h176" fill="#333"/><path id="bW" d="M211 0v-1349h295v1121h616V0H211" fill="#333"/><g id="X"><use transform="scale(.0086806)" xlink:href="#bU"/><use transform="matrix(.0086806 0 0 .0086806 10.668 0)" xlink:href="#bi"/><use transform="matrix(.0086806 0 0 .0086806 21.337 0)" xlink:href="#aM"/><use transform="matrix(.0086806 0 0 .0086806 32.005 0)" xlink:href="#aN"/><use transform="matrix(.0086806 0 0 .0086806 42.674 0)" xlink:href="#aO"/><use transform="matrix(.0086806 0 0 .0086806 53.342 0)" xlink:href="#bV"/><use transform="matrix(.0086806 0 0 .0086806 64.01 0)" xlink:href="#aM"/><use transform="matrix(.0086806 0 0 .0086806 74.679 0)" xlink:href="#aS"/><use transform="matrix(.0086806 0 0 .0086806 85.347 0)" xlink:href="#aO"/><use transform="matrix(.0086806 0 0 .0086806 96.016 0)" xlink:href="#bW"/><use transform="matrix(.0086806 0 0 .0086806 106.68 0)" xlink:href="#aQ"/><use transform="matrix(.0086806 0 0 .0086806 117.35 0)" xlink:href="#aN"/><use transform="matrix(.0086806 0 0 .0086806 128.02 0)" xlink:href="#aQ"/><use transform="matrix(.0086806 0 0 .0086806 138.69 0)" xlink:href="#aS"/><use transform="matrix(.0086806 0 0 .0086806 149.36 0)" xlink:href="#aO"/><use transform="matrix(.0086806 0 0 .0086806 160.03 0)" xlink:href="#bf"/></g><g id="Y"><use transform="scale(.061728)" xlink:href="#bn"/><use transform="matrix(.061728 0 0 .061728 14.815 0)" xlink:href="#bo"/><use transform="matrix(.061728 0 0 .061728 19.691 0)" xlink:href="#bd"/><use transform="matrix(.061728 0 0 .061728 32.037 0)" xlink:href="#bd"/><use transform="matrix(.061728 0 0 .061728 44.383 0)" xlink:href="#bv"/></g><g id="Z"><use transform="scale(.061728)" xlink:href="#bb"/><use transform="matrix(.061728 0 0 .061728 12.346 0)" xlink:href="#bp"/><use transform="matrix(.061728 0 0 .061728 23.457 0)" xlink:href="#bp"/><use transform="matrix(.061728 0 0 .061728 34.568 0)" xlink:href="#bB"/><use transform="matrix(.061728 0 0 .061728 46.914 0)" xlink:href="#bu"/><use transform="matrix(.061728 0 0 .061728 54.259 0)" xlink:href="#bC"/><use transform="matrix(.061728 0 0 .061728 66.605 0)" xlink:href="#bc"/><use transform="matrix(.061728 0 0 .061728 71.481 0)" xlink:href="#aY"/><use transform="matrix(.061728 0 0 .061728 83.827 0)" xlink:href="#bE"/></g><g id="aa"><use transform="scale(.061728)" xlink:href="#ba"/><use transform="matrix(.061728 0 0 .061728 6.1728 0)" xlink:href="#bB"/></g><path id="bX" d="M622-916c-112 2-200 14-200 111 0 90 89 101 168 121 234 58 514 77 514 368C1104-4 751 54 434 5 267-21 161-112 121-270l247-37c24 111 113 145 252 141 114-3 226-12 226-124 0-101-103-113-192-134-225-54-490-76-490-351 0-247 201-328 458-328 245 0 413 88 457 292l-249 26c-16-98-92-133-208-131" fill="#333"/><path id="bY" d="M462-1121v384h621v228H462V0H167v-1349h939v228H462" fill="#333"/><path id="bZ" d="M796 0v-574H433V0H138v-1349h295v531h363v-531h295V0H796" fill="#333"/><g id="ab"><use transform="scale(.0086806)" xlink:href="#bf"/><use transform="matrix(.0086806 0 0 .0086806 10.668 0)" xlink:href="#aO"/><use transform="matrix(.0086806 0 0 .0086806 21.337 0)" xlink:href="#bX"/><use transform="matrix(.0086806 0 0 .0086806 32.005 0)" xlink:href="#aQ"/><use transform="matrix(.0086806 0 0 .0086806 42.674 0)" xlink:href="#bi"/><use transform="matrix(.0086806 0 0 .0086806 53.342 0)" xlink:href="#aO"/><use transform="matrix(.0086806 0 0 .0086806 64.01 0)" xlink:href="#bf"/><use transform="matrix(.0086806 0 0 .0086806 74.679 0)" xlink:href="#bY"/><use transform="matrix(.0086806 0 0 .0086806 85.347 0)" xlink:href="#bi"/><use transform="matrix(.0086806 0 0 .0086806 96.016 0)" xlink:href="#aM"/><use transform="matrix(.0086806 0 0 .0086806 106.68 0)" xlink:href="#aN"/><use transform="matrix(.0086806 0 0 .0086806 117.35 0)" xlink:href="#aO"/><use transform="matrix(.0086806 0 0 .0086806 128.02 0)" xlink:href="#bV"/><use transform="matrix(.0086806 0 0 .0086806 138.69 0)" xlink:href="#aM"/><use transform="matrix(.0086806 0 0 .0086806 149.36 0)" xlink:href="#aS"/><use transform="matrix(.0086806 0 0 .0086806 160.03 0)" xlink:href="#aO"/><use transform="matrix(.0086806 0 0 .0086806 170.69 0)" xlink:href="#bZ"/><use transform="matrix(.0086806 0 0 .0086806 181.36 0)" xlink:href="#aO"/><use transform="matrix(.0086806 0 0 .0086806 192.03 0)" xlink:href="#bi"/><use transform="matrix(.0086806 0 0 .0086806 202.7 0)" xlink:href="#aS"/><use transform="matrix(.0086806 0 0 .0086806 213.37 0)" xlink:href="#aU"/></g><g id="ac"><use transform="scale(.061728)" xlink:href="#bR"/><use transform="matrix(.061728 0 0 .061728 20.926 0)" xlink:href="#bw"/><use transform="matrix(.061728 0 0 .061728 33.272 0)" xlink:href="#bc"/><use transform="matrix(.061728 0 0 .061728 38.148 0)" xlink:href="#bo"/><use transform="matrix(.061728 0 0 .061728 43.025 0)" xlink:href="#bd"/></g><g id="ad"><use transform="scale(.061728)" xlink:href="#aY"/><use transform="matrix(.061728 0 0 .061728 12.346 0)" xlink:href="#bB"/><use transform="matrix(.061728 0 0 .061728 24.691 0)" xlink:href="#ba"/></g><g id="ae"><use transform="scale(.061728)" xlink:href="#bE"/><use transform="matrix(.061728 0 0 .061728 12.346 0)" xlink:href="#bB"/><use transform="matrix(.061728 0 0 .061728 24.691 0)" xlink:href="#bN"/><use transform="matrix(.061728 0 0 .061728 37.037 0)" xlink:href="#bN"/><use transform="matrix(.061728 0 0 .061728 49.383 0)" xlink:href="#bo"/><use transform="matrix(.061728 0 0 .061728 54.259 0)" xlink:href="#bc"/><use transform="matrix(.061728 0 0 .061728 59.136 0)" xlink:href="#aY"/><use transform="matrix(.061728 0 0 .061728 71.481 0)" xlink:href="#bE"/></g><g id="af"><use transform="scale(.061728)" xlink:href="#br"/><use transform="matrix(.061728 0 0 .061728 12.346 0)" xlink:href="#bv"/></g><path id="ca" d="M165-48c-4 18 1 34 23 27l-3 20c-29 8-62 0-52-35h-2C116-14 99 4 63 4 30 4 8-16 8-49c0-68 71-67 138-67 10-26 0-56-31-54-26 1-42 9-47 31l-32-5c8-67 160-71 144 15-5 28-9 54-15 81zM42-50c3 52 80 24 89-6 7-12 7-24 11-38-47 1-103-4-100 44" fill="#333"/><path id="cb" d="M6 0l50-261h32L37 0H6" fill="#333"/><g id="ag"><use transform="scale(.061728)" xlink:href="#ca"/><use transform="matrix(.061728 0 0 .061728 12.346 0)" xlink:href="#cb"/><use transform="matrix(.061728 0 0 .061728 17.222 0)" xlink:href="#cb"/></g><g id="ah"><use transform="scale(.061728)" xlink:href="#bb"/><use transform="matrix(.061728 0 0 .061728 12.346 0)" xlink:href="#bL"/><use transform="matrix(.061728 0 0 .061728 23.457 0)" xlink:href="#bb"/><use transform="matrix(.061728 0 0 .061728 35.802 0)" xlink:href="#bc"/><use transform="matrix(.061728 0 0 .061728 40.679 0)" xlink:href="#bo"/><use transform="matrix(.061728 0 0 .061728 45.556 0)" xlink:href="#bb"/><use transform="matrix(.061728 0 0 .061728 57.901 0)" xlink:href="#bN"/><use transform="matrix(.061728 0 0 .061728 70.247 0)" xlink:href="#bo"/><use transform="matrix(.061728 0 0 .061728 75.123 0)" xlink:href="#bd"/></g><g id="ai"><use transform="scale(.061728)" xlink:href="#bA"/><use transform="matrix(.061728 0 0 .061728 15.988 0)" xlink:href="#bS"/><use transform="matrix(.061728 0 0 .061728 30.802 0)" xlink:href="#bT"/></g><g id="aj"><use transform="scale(.061728)" xlink:href="#bp"/><use transform="matrix(.061728 0 0 .061728 11.111 0)" xlink:href="#bK"/><use transform="matrix(.061728 0 0 .061728 22.222 0)" xlink:href="#bp"/><use transform="matrix(.061728 0 0 .061728 33.333 0)" xlink:href="#bo"/><use transform="matrix(.061728 0 0 .061728 38.21 0)" xlink:href="#bd"/><use transform="matrix(.061728 0 0 .061728 50.556 0)" xlink:href="#aZ"/></g><path id="cc" d="M471 20c-247 0-336-169-336-415v-687h281v607c4 148 31 285 172 285 152 0 207-150 207-312v-580h281c4 359-9 736 8 1082H816c-7-63-11-146-12-215h-5C736-76 644 20 471 20" fill="#333"/><path id="cd" d="M427-171c3 195 2 397 2 596H148V-846c1-83-4-168-8-236h272c10 49 14 118 15 176h4c59-114 151-197 316-197 291 0 385 259 385 560 0 243-65 433-220 521-50 28-109 42-176 42-162-2-253-78-309-191zm69-661c-91 113-92 463-1 586 46 62 145 101 225 54 96-57 118-191 119-351 0-123-18-215-53-276-46-82-128-115-220-74-25 12-48 33-70 61" fill="#333"/><g id="ak"><use transform="scale(.010851)" xlink:href="#aL"/><use transform="matrix(.010851 0 0 .010851 13.336 0)" xlink:href="#aM"/><use transform="matrix(.010851 0 0 .010851 26.671 0)" xlink:href="#aN"/><use transform="matrix(.010851 0 0 .010851 40.007 0)" xlink:href="#aO"/><use transform="matrix(.010851 0 0 .010851 53.342 0)" xlink:href="#aP"/><use transform="matrix(.010851 0 0 .010851 66.678 0)" xlink:href="#cc"/><use transform="matrix(.010851 0 0 .010851 80.013 0)" xlink:href="#cd"/><use transform="matrix(.010851 0 0 .010851 93.349 0)" xlink:href="#bf"/><use transform="matrix(.010851 0 0 .010851 106.68 0)" xlink:href="#aM"/><use transform="matrix(.010851 0 0 .010851 120.02 0)" xlink:href="#aS"/><use transform="matrix(.010851 0 0 .010851 133.36 0)" xlink:href="#aO"/><use transform="matrix(.010851 0 0 .010851 146.69 0)" xlink:href="#aV"/><use transform="matrix(.010851 0 0 .010851 160.03 0)" xlink:href="#aW"/></g><path id="ce" d="m1109-360c-43 238-207 380-485 380-347 0-514-209-514-555 0-353 168-567 518-567 270 0 425 136 473 361l-283 14c-16-106-75-183-196-182-75 0-130 31-165 93s-52 152-52 270c0 249 74 374 221 374 120 0 188-82 201-201" fill="#333"/><g id="al"><use transform="scale(.0086806)" xlink:href="#aL"/><use transform="matrix(.0086806 0 0 .0086806 10.668 0)" xlink:href="#aM"/><use transform="matrix(.0086806 0 0 .0086806 21.337 0)" xlink:href="#aN"/><use transform="matrix(.0086806 0 0 .0086806 32.005 0)" xlink:href="#aO"/><use transform="matrix(.0086806 0 0 .0086806 42.674 0)" xlink:href="#aP"/><use transform="matrix(.0086806 0 0 .0086806 53.342 0)" xlink:href="#aM"/><use transform="matrix(.0086806 0 0 .0086806 64.01 0)" xlink:href="#ce"/><use transform="matrix(.0086806 0 0 .0086806 74.679 0)" xlink:href="#aS"/><use transform="matrix(.0086806 0 0 .0086806 85.347 0)" xlink:href="#aQ"/><use transform="matrix(.0086806 0 0 .0086806 96.016 0)" xlink:href="#bj"/><use transform="matrix(.0086806 0 0 .0086806 106.68 0)" xlink:href="#aO"/></g><g id="am"><use transform="scale(.061728)" xlink:href="#bt"/><use transform="matrix(.061728 0 0 .061728 17.284 0)" xlink:href="#bu"/><use transform="matrix(.061728 0 0 .061728 24.63 0)" xlink:href="#bb"/><use transform="matrix(.061728 0 0 .061728 36.975 0)" xlink:href="#bp"/><use transform="matrix(.061728 0 0 .061728 48.086 0)" xlink:href="#bd"/><use transform="matrix(.061728 0 0 .061728 60.432 0)" xlink:href="#bH"/><use transform="matrix(.061728 0 0 .061728 66.605 0)" xlink:href="#br"/><use transform="matrix(.061728 0 0 .061728 78.951 0)" xlink:href="#bo"/><use transform="matrix(.061728 0 0 .061728 83.827 0)" xlink:href="#bo"/><use transform="matrix(.061728 0 0 .061728 88.704 0)" xlink:href="#bK"/></g><g id="an"><use transform="scale(.061728)" xlink:href="#bu"/><use transform="matrix(.061728 0 0 .061728 7.3457 0)" xlink:href="#bd"/><use transform="matrix(.061728 0 0 .061728 19.691 0)" xlink:href="#bo"/><use transform="matrix(.061728 0 0 .061728 24.568 0)" xlink:href="#bd"/><use transform="matrix(.061728 0 0 .061728 36.914 0)" xlink:href="#bb"/><use transform="matrix(.061728 0 0 .061728 49.259 0)" xlink:href="#aZ"/><use transform="matrix(.061728 0 0 .061728 60.37 0)" xlink:href="#bd"/></g><g id="ao"><use transform="scale(.061728)" xlink:href="#bt"/><use transform="matrix(.061728 0 0 .061728 17.284 0)" xlink:href="#bS"/><use transform="matrix(.061728 0 0 .061728 32.099 0)" xlink:href="#bT"/></g><g id="ap"><use transform="scale(.061728)" xlink:href="#bb"/><use transform="matrix(.061728 0 0 .061728 12.346 0)" xlink:href="#aY"/><use transform="matrix(.061728 0 0 .061728 24.691 0)" xlink:href="#bC"/></g><g id="aq"><use transform="scale(.061728)" xlink:href="#bB"/><use transform="matrix(.061728 0 0 .061728 12.346 0)" xlink:href="#ba"/><use transform="matrix(.061728 0 0 .061728 18.519 0)" xlink:href="#bw"/><use transform="matrix(.061728 0 0 .061728 30.864 0)" xlink:href="#bd"/><use transform="matrix(.061728 0 0 .061728 43.21 0)" xlink:href="#bu"/></g><g id="ar"><use transform="scale(.061728)" xlink:href="#br"/><use transform="matrix(.061728 0 0 .061728 12.346 0)" xlink:href="#aY"/><use transform="matrix(.061728 0 0 .061728 24.691 0)" xlink:href="#bD"/><use transform="matrix(.061728 0 0 .061728 43.148 0)" xlink:href="#bb"/><use transform="matrix(.061728 0 0 .061728 55.494 0)" xlink:href="#aY"/><use transform="matrix(.061728 0 0 .061728 67.84 0)" xlink:href="#bb"/><use transform="matrix(.061728 0 0 .061728 80.185 0)" xlink:href="#bE"/><use transform="matrix(.061728 0 0 .061728 92.531 0)" xlink:href="#bd"/><use transform="matrix(.061728 0 0 .061728 104.88 0)" xlink:href="#bC"/></g><g id="as"><use transform="scale(.061728)" xlink:href="#bu"/><use transform="matrix(.061728 0 0 .061728 7.3457 0)" xlink:href="#bd"/><use transform="matrix(.061728 0 0 .061728 19.691 0)" xlink:href="#aZ"/><use transform="matrix(.061728 0 0 .061728 30.802 0)" xlink:href="#bB"/><use transform="matrix(.061728 0 0 .061728 43.148 0)" xlink:href="#br"/><use transform="matrix(.061728 0 0 .061728 55.494 0)" xlink:href="#bu"/><use transform="matrix(.061728 0 0 .061728 62.84 0)" xlink:href="#bp"/><use transform="matrix(.061728 0 0 .061728 73.951 0)" xlink:href="#bd"/><use transform="matrix(.061728 0 0 .061728 86.296 0)" xlink:href="#aZ"/></g><path id="cf" d="M30 0v-248h187v28H63v79h144v27H63v87h162V0H30" fill="#333"/><path id="cg" d="M141 0L90-78 38 0H4l68-98-65-92h35l48 74 47-74h35l-64 92 68 98h-35" fill="#333"/><g id="at"><use transform="scale(.061728)" xlink:href="#cf"/><use transform="matrix(.061728 0 0 .061728 14.815 0)" xlink:href="#cg"/><use transform="matrix(.061728 0 0 .061728 25.926 0)" xlink:href="#bc"/><use transform="matrix(.061728 0 0 .061728 30.802 0)" xlink:href="#ba"/></g><g id="au"><use transform="scale(.061728)" xlink:href="#bt"/><use transform="matrix(.061728 0 0 .061728 17.284 0)" xlink:href="#bb"/><use transform="matrix(.061728 0 0 .061728 29.63 0)" xlink:href="#bD"/><use transform="matrix(.061728 0 0 .061728 48.086 0)" xlink:href="#bd"/></g><g id="av"><use transform="scale(.061728)" xlink:href="#bT"/><use transform="matrix(.061728 0 0 .061728 15.988 0)" xlink:href="#bv"/><use transform="matrix(.061728 0 0 .061728 28.333 0)" xlink:href="#bC"/><use transform="matrix(.061728 0 0 .061728 40.679 0)" xlink:href="#bb"/><use transform="matrix(.061728 0 0 .061728 53.025 0)" xlink:href="#ba"/><use transform="matrix(.061728 0 0 .061728 59.198 0)" xlink:href="#bd"/></g><g id="aw"><use transform="scale(.061728)" xlink:href="#bR"/><use transform="matrix(.061728 0 0 .061728 20.926 0)" xlink:href="#bc"/><use transform="matrix(.061728 0 0 .061728 25.802 0)" xlink:href="#aY"/><use transform="matrix(.061728 0 0 .061728 38.148 0)" xlink:href="#bC"/><use transform="matrix(.061728 0 0 .061728 50.494 0)" xlink:href="#bB"/><use transform="matrix(.061728 0 0 .061728 62.84 0)" xlink:href="#bF"/><use transform="matrix(.061728 0 0 .061728 78.827 0)" xlink:href="#aZ"/></g><path id="ch" d="M233-177c-1 41-23 64-60 70L243 0h-38l-65-103H63V0H30v-248c88 3 205-21 203 71zM63-129c60-2 137 13 137-47 0-61-80-42-137-45v92" fill="#333"/><g id="ax"><use transform="scale(.061728)" xlink:href="#ch"/><use transform="matrix(.061728 0 0 .061728 15.988 0)" xlink:href="#bb"/><use transform="matrix(.061728 0 0 .061728 28.333 0)" xlink:href="#bc"/><use transform="matrix(.061728 0 0 .061728 33.21 0)" xlink:href="#aZ"/><use transform="matrix(.061728 0 0 .061728 44.321 0)" xlink:href="#bd"/></g><g id="ay"><use transform="scale(.061728)" xlink:href="#bp"/><use transform="matrix(.061728 0 0 .061728 11.111 0)" xlink:href="#bb"/><use transform="matrix(.061728 0 0 .061728 23.457 0)" xlink:href="#bo"/><use transform="matrix(.061728 0 0 .061728 28.333 0)" xlink:href="#bo"/><use transform="matrix(.061728 0 0 .061728 33.21 0)" xlink:href="#bN"/><use transform="matrix(.061728 0 0 .061728 45.556 0)" xlink:href="#bb"/><use transform="matrix(.061728 0 0 .061728 57.901 0)" xlink:href="#bp"/><use transform="matrix(.061728 0 0 .061728 69.012 0)" xlink:href="#bs"/><use transform="matrix(.061728 0 0 .061728 80.123 0)" xlink:href="#aZ"/></g><g id="az"><use transform="scale(.061728)" xlink:href="#bB"/><use transform="matrix(.061728 0 0 .061728 12.346 0)" xlink:href="#aY"/></g><g id="aA"><use transform="scale(.061728)" xlink:href="#ba"/><use transform="matrix(.061728 0 0 .061728 6.1728 0)" xlink:href="#bw"/><use transform="matrix(.061728 0 0 .061728 18.519 0)" xlink:href="#bd"/></g><g id="aB"><use transform="scale(.061728)" xlink:href="#bd"/><use transform="matrix(.061728 0 0 .061728 12.346 0)" xlink:href="#bL"/><use transform="matrix(.061728 0 0 .061728 23.457 0)" xlink:href="#bd"/><use transform="matrix(.061728 0 0 .061728 35.802 0)" xlink:href="#aY"/><use transform="matrix(.061728 0 0 .061728 48.148 0)" xlink:href="#ba"/></g><g id="aC"><use transform="scale(.061728)" xlink:href="#bo"/><use transform="matrix(.061728 0 0 .061728 4.8765 0)" xlink:href="#bB"/><use transform="matrix(.061728 0 0 .061728 17.222 0)" xlink:href="#bB"/><use transform="matrix(.061728 0 0 .061728 29.568 0)" xlink:href="#bv"/></g><path id="ci" d="M47-170H22l-4-78h33" fill="#333"/><g id="aD"><use transform="scale(.061728)" xlink:href="#bt"/><use transform="matrix(.061728 0 0 .061728 17.284 0)" xlink:href="#bb"/><use transform="matrix(.061728 0 0 .061728 29.63 0)" xlink:href="#bD"/><use transform="matrix(.061728 0 0 .061728 48.086 0)" xlink:href="#bd"/><use transform="matrix(.061728 0 0 .061728 60.432 0)" xlink:href="#ci"/><use transform="matrix(.061728 0 0 .061728 64.63 0)" xlink:href="#aZ"/></g><path id="cj" d="M762-1121V0H467v-1121H61v-228h1107v228H762" fill="#333"/><g id="aE"><use transform="scale(.0086806)" xlink:href="#cj"/><use transform="matrix(.0086806 0 0 .0086806 10.668 0)" xlink:href="#aQ"/><use transform="matrix(.0086806 0 0 .0086806 21.337 0)" xlink:href="#aN"/><use transform="matrix(.0086806 0 0 .0086806 32.005 0)" xlink:href="#aO"/></g><g id="aF"><use transform="scale(.061728)" xlink:href="#ch"/><use transform="matrix(.061728 0 0 .061728 15.988 0)" xlink:href="#br"/><use transform="matrix(.061728 0 0 .061728 28.333 0)" xlink:href="#aY"/></g><g id="aG"><use transform="scale(.061728)" xlink:href="#bb"/><use transform="matrix(.061728 0 0 .061728 12.346 0)" xlink:href="#bo"/><use transform="matrix(.061728 0 0 .061728 17.222 0)" xlink:href="#bo"/></g><g id="aH"><use transform="scale(.061728)" xlink:href="#bB"/><use transform="matrix(.061728 0 0 .061728 12.346 0)" xlink:href="#bH"/></g><g id="aI"><use transform="scale(.061728)" xlink:href="#ba"/><use transform="matrix(.061728 0 0 .061728 6.1728 0)" xlink:href="#bw"/><use transform="matrix(.061728 0 0 .061728 18.519 0)" xlink:href="#bd"/></g><path id="ck" d="M609-1161c-125 0-218 36-218 153 0 149 166 161 290 196 235 67 484 129 484 421 0 300-239 408-554 411C302 23 93-114 38-367l285-37c32 128 131 205 296 203 143-2 259-31 259-173 0-164-197-172-333-212-218-64-441-131-441-405 0-276 231-379 511-379 299 0 463 114 513 363l-286 29c-28-115-96-183-233-183" fill="#333"/><path id="cl" d="M143 212c82 12 185 12 233-31 50-45 83-117 110-192L38-1082h297c100 284 211 557 291 861 72-305 176-578 270-861h294L742 57c-80 192-156 368-417 368-60 0-131-4-182-13V212" fill="#333"/><g id="aJ"><use transform="scale(.0086806)" xlink:href="#ck"/><use transform="matrix(.0086806 0 0 .0086806 10.668 0)" xlink:href="#cl"/><use transform="matrix(.0086806 0 0 .0086806 21.337 0)" xlink:href="#bX"/><use transform="matrix(.0086806 0 0 .0086806 32.005 0)" xlink:href="#aS"/><use transform="matrix(.0086806 0 0 .0086806 42.674 0)" xlink:href="#aO"/><use transform="matrix(.0086806 0 0 .0086806 53.342 0)" xlink:href="#aN"/><use transform="matrix(.049383 0 0 .049383 64.01 0)" xlink:href="#aZ"/></g><g id="aK"><use transform="scale(.010851)" xlink:href="#aL"/><use transform="matrix(.010851 0 0 .010851 13.336 0)" xlink:href="#aM"/><use transform="matrix(.010851 0 0 .010851 26.671 0)" xlink:href="#aN"/><use transform="matrix(.010851 0 0 .010851 40.007 0)" xlink:href="#aO"/><use transform="matrix(.010851 0 0 .010851 53.342 0)" xlink:href="#aP"/><use transform="matrix(.010851 0 0 .010851 66.678 0)" xlink:href="#bi"/><use transform="matrix(.010851 0 0 .010851 80.013 0)" xlink:href="#aO"/><use transform="matrix(.010851 0 0 .010851 93.349 0)" xlink:href="#aR"/><use transform="matrix(.010851 0 0 .010851 106.68 0)" xlink:href="#bf"/><use transform="matrix(.010851 0 0 .010851 120.02 0)" xlink:href="#aO"/><use transform="matrix(.010851 0 0 .010851 133.36 0)" xlink:href="#bi"/><use transform="matrix(.010851 0 0 .010851 146.69 0)" xlink:href="#aV"/><use transform="matrix(.010851 0 0 .010851 160.03 0)" xlink:href="#aW"/></g></defs></g></svg>
